<svg width="163" height="80" viewBox="0 0 163 80" fill="none" xmlns="http://www.w3.org/2000/svg">
<path d="M61.3796 39.1211C61.3796 30.9092 51.1772 24.2153 38.5908 24.2153C26.0051 24.2153 15.8025 30.9092 15.8025 39.1211C15.8025 39.3329 15.7997 39.9192 15.7997 39.9937C15.7997 48.7052 24.7174 55.7611 38.5876 55.7611C52.544 55.7611 61.3796 48.7071 61.3796 39.9954V39.1211Z" fill="#002F6D"/>
<path d="M60.5071 39.1139C60.5071 46.8555 50.6967 53.1314 38.595 53.1314C26.4929 53.1314 16.6835 46.8555 16.6835 39.1139C16.6835 31.3713 26.4929 25.0952 38.595 25.0952C50.6967 25.0952 60.5071 31.3713 60.5071 39.1139Z" fill="#FFE900"/>
<path d="M31.3194 34.6912C31.3075 34.7133 31.0891 34.9394 31.2307 35.1211C31.5769 35.5629 32.6444 35.8161 33.7244 35.574C34.3676 35.4295 35.1915 34.7736 35.9904 34.1403C36.8556 33.4527 37.7144 32.7643 38.5775 32.4905C39.4914 32.1997 40.0768 32.3243 40.4636 32.4416C40.8882 32.568 41.3868 32.8474 42.1829 33.4447C43.6822 34.5718 49.7118 39.834 50.7529 40.7442C51.5917 40.3649 55.3196 38.76 60.3866 37.643C59.9468 34.9418 58.303 32.4708 55.8114 30.4471C52.3389 31.9058 48.0942 32.6668 43.9435 30.64C43.9225 30.6312 41.6759 29.5679 39.46 29.6203C36.1673 29.6965 34.7411 31.1219 33.2307 32.6308L31.3194 34.6912Z" fill="white"/>
<path d="M50.5079 41.3162C50.4375 41.2532 43.4187 35.1124 41.8292 33.9173C40.909 33.2272 40.397 33.0512 39.8597 32.9829C39.58 32.9466 39.1933 32.9985 38.9233 33.0724C38.1837 33.2736 37.2166 33.9202 36.358 34.601C35.4687 35.3091 34.6309 35.9759 33.8528 36.1501C32.8596 36.3728 31.646 36.1099 31.0923 35.7356C30.8675 35.5849 30.7098 35.4105 30.6338 35.2333C30.4296 34.7589 30.8071 34.3799 30.8688 34.3163L32.8054 32.2215C33.0301 31.9969 33.2571 31.772 33.4892 31.5506C32.8641 31.632 32.2868 31.7916 31.7246 31.9481C31.023 32.1455 30.3479 32.333 29.6653 32.3328C29.38 32.3328 27.8524 32.0823 27.5628 32.0035C25.8101 31.5238 24.2718 31.0567 21.9738 29.9841C19.2211 32.0336 17.3795 34.5964 16.848 37.4191C17.2431 37.5239 17.881 37.7136 18.1483 37.773C24.3789 39.1585 26.3199 40.5858 26.6717 40.8832C27.0529 40.4597 27.6025 40.191 28.2162 40.191C28.9061 40.1919 29.5271 40.5383 29.9045 41.0735C30.2616 40.7919 30.7536 40.551 31.3898 40.5512C31.6786 40.5512 31.9786 40.6047 32.2812 40.7075C32.9837 40.9487 33.3464 41.4167 33.535 41.84C33.7706 41.7337 34.0607 41.6553 34.402 41.6561C34.7375 41.6561 35.0864 41.7326 35.4382 41.8848C36.587 42.3777 36.7661 43.5063 36.6615 44.3571C36.7435 44.3473 36.8258 44.3438 36.9093 44.3438C38.2713 44.3445 39.3788 45.4515 39.3788 46.8144C39.3788 47.236 39.271 47.6327 39.0837 47.9804C39.454 48.1889 40.3989 48.6605 41.2283 48.5555C41.8908 48.4713 42.1423 48.2453 42.2327 48.1178C42.2944 48.0304 42.3597 47.9282 42.2985 47.8547L40.5407 45.9017C40.5407 45.9017 40.2512 45.6279 40.3469 45.522C40.4462 45.4133 40.6244 45.569 40.7513 45.6753C41.6462 46.4225 42.7385 47.5504 42.7385 47.5504C42.7568 47.5622 42.8296 47.7048 43.2333 47.7772C43.5815 47.8395 44.1965 47.8036 44.623 47.454C44.7304 47.3653 44.838 47.2542 44.9278 47.1411C44.9211 47.1458 44.9149 47.154 44.9084 47.1568C45.3579 46.5812 44.8584 45.9992 44.8584 45.9992L42.8058 43.6944C42.8058 43.6944 42.5126 43.4232 42.612 43.3138C42.7016 43.2192 42.8903 43.362 43.0188 43.4689C43.6691 44.0125 44.5874 44.9342 45.4668 45.7958C45.6382 45.9221 46.4124 46.3997 47.4359 45.7271C48.0581 45.3201 48.1827 44.8191 48.1651 44.4414C48.1219 43.9414 47.7315 43.5847 47.7315 43.5847L44.9278 40.7662C44.9278 40.7662 44.6318 40.513 44.7369 40.3849C44.8217 40.2776 45.0148 40.4326 45.1404 40.5383C46.0338 41.2855 48.4518 43.502 48.4518 43.502C48.4855 43.5264 49.3211 44.1211 50.3535 43.464C50.7226 43.228 50.9584 42.8721 50.9784 42.4591C51.0138 41.7418 50.5079 41.3162 50.5079 41.3162Z" fill="white"/>
<path d="M36.9091 44.8894C36.4744 44.8843 35.9985 45.1426 35.9362 45.105C35.9023 45.082 35.963 44.9077 36.0039 44.8072C36.0455 44.7066 36.618 42.9841 35.2225 42.386C34.1545 41.927 33.5023 42.4431 33.2777 42.6761C33.2186 42.7375 33.1924 42.7324 33.1858 42.6544C33.1643 42.3445 33.0255 41.5052 32.1033 41.2246C30.7865 40.8206 29.9395 41.7404 29.7245 42.072C29.6285 41.3214 28.9935 40.7385 28.2158 40.7377C27.3711 40.7368 26.6863 41.4213 26.6852 42.2659C26.685 43.1104 27.3694 43.795 28.2145 43.795C28.6247 43.7963 28.9973 43.632 29.2715 43.3685C29.2802 43.376 29.2836 43.3906 29.2791 43.4198C29.2149 43.798 29.0965 45.1725 30.5354 45.7317C31.1127 45.9555 31.6034 45.7892 32.0101 45.5038C32.1319 45.4181 32.1512 45.454 32.1341 45.5685C32.0819 45.9222 32.1478 46.6786 33.2087 47.1085C34.016 47.4362 34.4936 47.1004 34.8066 46.8113C34.9427 46.6867 34.9801 46.7074 34.9869 46.8993C35.0254 47.9227 35.8752 48.7345 36.9069 48.7351C37.9697 48.7357 38.8309 47.8763 38.832 46.8143C38.8329 45.7512 37.9717 44.9012 36.9091 44.8894Z" fill="white"/>
<path d="M36.9091 48.5982C35.9457 48.5971 35.1627 47.8493 35.1275 46.8954C35.1245 46.8131 35.1163 46.5958 34.9325 46.5958C34.8567 46.5958 34.7912 46.6411 34.7153 46.7092C34.5036 46.9059 34.2337 47.1052 33.8398 47.1052C33.6607 47.1052 33.4672 47.0639 33.2625 46.98C32.245 46.5683 32.2312 45.8692 32.2729 45.5883C32.2839 45.5132 32.2875 45.4356 32.2362 45.3744L32.1741 45.3186H32.1103C32.0584 45.3186 32.0055 45.3399 31.9331 45.391C31.6385 45.5971 31.3568 45.6977 31.0696 45.6977C30.912 45.6977 30.75 45.6661 30.5873 45.6038C29.2482 45.0821 29.3541 43.8179 29.4194 43.4373C29.4292 43.3604 29.4099 43.3005 29.361 43.2608L29.2663 43.1828L29.1778 43.2679C28.9169 43.5196 28.5752 43.6568 28.2163 43.6568C27.4494 43.6561 26.8251 43.0325 26.8255 42.266C26.8261 41.498 27.4509 40.8754 28.2185 40.8763C28.9115 40.8763 29.5019 41.3978 29.5906 42.0901L29.6378 42.4636L29.8429 42.1479C29.8661 42.1105 30.4279 41.2607 31.4616 41.2618C31.6578 41.2618 31.861 41.2933 32.0652 41.3565C32.8888 41.608 33.0284 42.3549 33.0501 42.6659C33.0647 42.8476 33.1938 42.8557 33.2189 42.8557C33.29 42.8557 33.3426 42.8111 33.3795 42.7716C33.535 42.6094 33.8737 42.3399 34.4037 42.3399C34.6458 42.3403 34.9039 42.3977 35.1704 42.5126C36.4796 43.0742 35.8858 44.7377 35.8787 44.7553C35.7659 45.031 35.7619 45.1526 35.8675 45.2231L35.9193 45.2471H35.9569C36.0162 45.2471 36.0896 45.2217 36.2107 45.1807C36.389 45.1191 36.6581 45.0261 36.9093 45.0268H36.91C37.8958 45.0379 38.6972 45.8398 38.6966 46.8142C38.6953 47.7986 37.8936 48.5982 36.9091 48.5982ZM50.7789 40.5812C48.6174 38.6941 43.621 34.3506 42.268 33.3346C41.4947 32.7535 40.9675 32.4464 40.5046 32.3083C40.2963 32.2455 40.009 32.1741 39.6385 32.1736C39.2938 32.1736 38.9245 32.2359 38.5385 32.3588C37.6642 32.6353 36.7929 33.328 35.9502 33.9976L35.9069 34.0319C35.1217 34.6558 34.3103 35.3014 33.6965 35.4384C33.4287 35.4988 33.1532 35.5301 32.8779 35.5301C32.1906 35.529 31.5728 35.331 31.341 35.0353C31.3028 34.9865 31.3276 34.9073 31.4169 34.7937L31.4285 34.7784L33.3302 32.7289C34.8202 31.2394 36.2271 29.8331 39.4654 29.7584C39.5193 29.7571 39.5739 29.7563 39.6275 29.7563C41.6431 29.7576 43.6584 30.66 43.8843 30.7646C45.7748 31.6861 47.7257 32.1547 49.6873 32.1565C51.7312 32.1571 53.8399 31.6511 56.0575 30.6299C55.8099 30.4214 55.5518 30.2191 55.2867 30.02C53.3389 30.8646 51.4829 31.2916 49.6929 31.2907C47.864 31.2892 46.0362 30.8501 44.2623 29.9846C44.1688 29.9399 41.9435 28.8908 39.6286 28.8895C39.568 28.8895 39.506 28.8908 39.4456 28.8914C36.7253 28.955 35.1928 29.9214 34.1626 30.7675C33.1603 30.7916 32.2957 31.0337 31.5264 31.2484C30.84 31.4391 30.2471 31.6049 29.6687 31.6043C29.4308 31.6043 29.0019 31.5826 28.9633 31.5813C28.2984 31.5609 24.949 30.7392 22.284 29.7307C22.0119 29.9231 21.7501 30.122 21.4952 30.3245C24.2789 31.466 27.6667 32.3486 28.7358 32.418C29.033 32.4373 29.3502 32.471 29.6674 32.4717C30.3749 32.4717 31.0801 32.273 31.7639 32.0821C32.1672 31.9685 32.6129 31.8455 33.0806 31.7557C32.9558 31.8781 32.8313 32.0027 32.7065 32.1285L30.7737 34.2185C30.6212 34.3719 30.2918 34.7818 30.5091 35.2866C30.5956 35.4901 30.7713 35.6847 31.0168 35.8505C31.4776 36.1604 32.3021 36.37 33.0679 36.3706C33.3583 36.3706 33.6332 36.3419 33.8862 36.285C34.696 36.1031 35.5456 35.4266 36.4457 34.711C37.163 34.141 38.182 33.4175 38.9622 33.2051C39.1798 33.1456 39.4472 33.1091 39.6628 33.1091C39.727 33.1095 39.7873 33.1114 39.8442 33.1194C40.3595 33.1849 40.8579 33.3604 41.7477 34.0281C43.3332 35.2195 50.3528 41.3595 50.4212 41.4203C50.4265 41.4244 50.8734 41.8105 50.8423 42.4522C50.8258 42.8098 50.6269 43.1278 50.2818 43.3486C49.9822 43.538 49.673 43.6351 49.3602 43.6351C48.891 43.634 48.5682 43.4141 48.5474 43.3993C48.5216 43.3782 46.1167 41.1731 45.2321 40.4326C45.0908 40.3158 44.9542 40.2108 44.8153 40.2108C44.7414 40.2101 44.6759 40.2417 44.6317 40.2973C44.4925 40.4687 44.6484 40.7062 44.832 40.8623L47.6417 43.686C47.6451 43.6895 47.9912 44.0142 48.0293 44.4471C48.0513 44.9153 47.8279 45.3064 47.3626 45.6119C47.0309 45.8297 46.6951 45.9408 46.3667 45.9408C45.9355 45.9408 45.6327 45.7441 45.5659 45.6977L45.1626 45.3006C44.4261 44.5758 43.6657 43.8267 43.1092 43.362C42.9735 43.2492 42.8283 43.1453 42.69 43.1453C42.6224 43.1453 42.5605 43.1706 42.5133 43.2202C42.4495 43.2909 42.4057 43.4178 42.5637 43.628C42.6286 43.7146 42.7053 43.7863 42.7053 43.7863L44.7558 46.0881C44.7728 46.1087 45.1782 46.5904 44.8015 47.071L44.7296 47.1625C44.6682 47.2308 44.6018 47.2931 44.5389 47.346C44.1895 47.6333 43.7222 47.6642 43.5375 47.6642C43.438 47.6642 43.3427 47.6554 43.2596 47.6408C43.0577 47.6043 42.9218 47.5478 42.8562 47.4699L42.8311 47.4447C42.7192 47.3283 41.6858 46.2739 40.8309 45.5602C40.7181 45.4657 40.5779 45.3463 40.4323 45.3463C40.3607 45.3463 40.2963 45.3744 40.2474 45.4292C40.0779 45.6147 40.3324 45.8914 40.44 45.9932L42.1886 47.9211C42.1864 47.9387 42.1641 47.9786 42.1218 48.0396C42.0591 48.1255 41.8471 48.3375 41.2127 48.418C41.1371 48.4272 41.0585 48.4315 40.9812 48.4315C40.327 48.4315 39.6297 48.1141 39.27 47.9232C39.4334 47.5775 39.5183 47.1973 39.5183 46.8148C39.5193 45.3758 38.3506 44.2057 36.9115 44.2044C36.881 44.2044 36.8484 44.2057 36.8172 44.2068C36.8645 43.5496 36.7717 42.3058 35.4947 41.7577C35.1275 41.5986 34.7607 41.5178 34.4044 41.5178C34.1256 41.5178 33.8576 41.5655 33.6046 41.6623C33.3404 41.1484 32.9011 40.7739 32.3279 40.5782C32.0115 40.4687 31.6965 40.4135 31.3922 40.4135C30.8608 40.4135 30.3712 40.5694 29.9344 40.8802C29.5162 40.3605 28.884 40.0518 28.2185 40.0518C27.6364 40.0518 27.0762 40.2851 26.6612 40.6959C26.1172 40.2806 23.9583 38.9091 18.1806 37.5974C17.9008 37.534 17.2586 37.3497 16.865 37.2346C16.7997 37.5473 16.7501 37.8637 16.7172 38.1828C16.7172 38.1828 17.7831 38.4379 17.9927 38.4847C23.8949 39.7959 25.8452 41.1592 26.175 41.4167C26.0636 41.6847 26.0053 41.9741 26.0047 42.266C26.0041 43.4845 26.9956 44.478 28.2159 44.4794C28.3529 44.4794 28.4884 44.4677 28.622 44.4428C28.8056 45.3399 29.3926 46.0202 30.2902 46.369C30.552 46.4701 30.8177 46.5217 31.078 46.5217C31.2461 46.5224 31.416 46.5011 31.5816 46.459C31.7472 46.8801 32.1206 47.4046 32.9541 47.743C33.246 47.8609 33.5385 47.9226 33.8228 47.9226C34.0548 47.9226 34.282 47.8822 34.4982 47.8016C34.8979 48.7749 35.8482 49.4201 36.9085 49.4201C37.6108 49.4207 38.2853 49.1347 38.7773 48.6283C39.198 48.8626 40.0876 49.2854 40.9851 49.2874C41.1015 49.2874 41.2107 49.2792 41.3194 49.2655C42.2113 49.1527 42.6267 48.8046 42.8171 48.5331C42.8513 48.4861 42.8825 48.4356 42.9089 48.3839C43.1197 48.4438 43.3513 48.4932 43.6163 48.4938C44.1033 48.4938 44.5707 48.328 45.0436 47.984C45.5077 47.6483 45.8378 47.1685 45.885 46.7592C45.8859 46.7539 45.8874 46.7474 45.888 46.7414C46.0439 46.7738 46.2046 46.7908 46.3652 46.7908C46.8665 46.7908 47.3594 46.634 47.8307 46.3256C48.74 45.7294 48.8981 44.9505 48.8831 44.4413C49.0424 44.4746 49.205 44.4918 49.3662 44.4918C49.8374 44.4918 50.2996 44.3496 50.7403 44.0687C51.3036 43.7086 51.6427 43.157 51.6938 42.5149C51.7297 42.0785 51.6212 41.6385 51.3914 41.2603C52.9145 40.604 56.3964 39.3337 60.4961 38.41C60.4714 38.0921 60.4257 37.7782 60.369 37.4657C55.4081 38.5666 51.7065 40.1685 50.7789 40.5812Z" fill="#002F6D"/>
<path d="M70.5518 30.9032V37.6065H67.8741V31.4384C67.8741 28.4434 69.3815 26.9562 72.3765 26.9562C73.7246 26.9562 74.7561 27.2536 75.5098 27.8485C76.2636 27.2733 77.2945 26.9959 78.6438 26.9959C81.6389 26.9959 83.1264 28.4831 83.1064 31.4779V37.6464H81.7377C80.8651 37.5866 80.4285 37.1703 80.4285 36.3373V30.9428C80.3691 29.8518 79.7742 29.3161 78.6038 29.3161C77.434 29.3161 76.8385 29.8518 76.8191 30.9428V37.6065H74.1612V30.9032C74.1017 29.812 73.5068 29.2766 72.337 29.2766C71.1667 29.2766 70.5712 29.812 70.5518 30.9032Z" fill="#002F6D"/>
<path d="M96.0392 32.2329C96.1187 28.8412 97.7942 26.9561 101.305 26.9561H102.101V29.6929L100.876 29.7193C99.4075 29.7193 98.7166 30.6658 98.7166 32.193V37.6472H96.0392V32.2329Z" fill="#002F6D"/>
<path d="M120.388 33.2125V32.354C119.773 32.6119 119.059 32.7171 118.285 32.8756C117.235 33.074 116.698 33.5699 116.698 34.3433C116.758 35.1763 117.195 35.5728 118.028 35.5728C119.495 35.5728 120.388 34.7 120.388 33.2125ZM116.87 30.2465L114.414 30.2437C114.508 28.2168 115.528 26.866 118.524 26.866C121.419 26.866 122.887 27.818 122.947 29.7618V33.3318C122.947 36.2273 121.201 37.5166 118.365 37.7148C115.846 37.913 114.101 36.743 114.101 34.4225C114.16 31.9034 115.985 31.2295 118.643 30.9715C119.773 30.8328 120.348 30.4954 120.348 29.9205C120.289 29.3254 119.734 29.0421 118.643 29.028C117.407 29.0117 117.009 29.7506 116.87 30.2465Z" fill="#002F6D"/>
<path d="M127.18 32.331C127.16 34.4534 127.874 35.5242 129.382 35.5242C130.889 35.5242 131.642 34.4534 131.642 32.331C131.583 30.3079 130.849 29.3162 129.421 29.3162C127.994 29.3162 127.259 30.3079 127.18 32.331ZM134.26 23.6077V33.065C134.26 36.2183 132.614 37.7852 129.342 37.7655C126.089 37.7056 124.462 35.9406 124.462 32.4502C124.462 28.8802 125.851 27.0554 128.647 26.9562C129.957 26.9562 130.969 27.4918 131.642 28.5826V25.2386L131.649 24.9433C132.521 23.6414 134.26 23.6077 134.26 23.6077Z" fill="#002F6D"/>
<path d="M87.2871 39.2449H87.9775V53.1398H85.3401V40.9426C85.3401 40.5468 86.1596 39.2449 87.2871 39.2449Z" fill="#002F6D"/>
<path d="M100.885 50.8982C99.3772 50.8982 98.6634 49.8276 98.6834 47.7053C98.7629 45.6821 99.4966 44.6905 100.925 44.6905C102.353 44.6905 103.086 45.6821 103.146 47.7053C103.146 49.8276 102.392 50.8982 100.885 50.8982ZM101.658 42.3304C100.35 42.3304 99.3578 42.8659 98.6834 43.9567L98.6829 39.2449H98.384C97.0685 39.2608 96.3776 39.963 96.0455 40.5369V40.4463V48.4392C96.0455 51.5923 97.6919 53.1594 100.964 53.1398C104.217 53.0797 105.843 51.3148 105.843 47.8243C105.843 44.2544 104.455 42.4293 101.658 42.3304Z" fill="#002F6D"/>
<path d="M90.9829 29.5923C90.6469 29.2236 90.136 29.0387 89.4502 29.0387C89.0022 29.0387 88.6302 29.1147 88.3336 29.2661C88.037 29.418 87.7993 29.6056 87.6215 29.8297C87.4438 30.0538 87.3181 30.2912 87.2455 30.5416C87.1729 30.792 87.1306 31.016 87.1175 31.2138H91.6847C91.5533 30.502 91.319 29.9617 90.9829 29.5923ZM87.8096 34.9705C88.2313 35.3795 88.8376 35.5837 89.6285 35.5837C90.1949 35.5837 90.6835 35.4422 91.0915 35.1585C91.5001 34.8752 91.7504 34.5752 91.843 34.2588H94.3146C93.9192 35.4847 93.3128 36.3616 92.4956 36.8886C91.6778 37.416 90.6892 37.6795 89.5297 37.6795C88.7256 37.6795 88.0004 37.5511 87.3547 37.294C86.7083 37.037 86.1614 36.671 85.7134 36.1966C85.2648 35.722 84.9191 35.1555 84.675 34.4959C84.431 33.8373 84.3099 33.112 84.3099 32.3211C84.3099 31.5567 84.4345 30.845 84.6853 30.1855C84.9356 29.5266 85.2917 28.9567 85.7528 28.4752C86.214 27.9941 86.7643 27.615 87.4038 27.3382C88.0433 27.0614 88.7513 26.9231 89.5297 26.9231C90.3995 26.9231 91.1572 27.0912 91.8036 27.4271C92.4493 27.7632 92.9802 28.2151 93.3951 28.7816C93.8106 29.3486 94.11 29.9946 94.2952 30.7196C94.4792 31.4446 94.5455 32.2025 94.4929 32.9933H87.1175C87.1569 33.9027 87.3872 34.5623 87.8096 34.9705Z" fill="#002F6D"/>
<path d="M108.039 29.0057C107.586 29.0057 107.206 29.109 106.9 29.3152C106.594 29.522 106.345 29.7881 106.151 30.1143C105.958 30.4407 105.822 30.8 105.742 31.1928C105.662 31.5856 105.622 31.9752 105.622 32.3611C105.622 32.7342 105.662 33.1134 105.742 33.4995C105.822 33.8859 105.952 34.2355 106.131 34.5482C106.311 34.8611 106.554 35.1173 106.861 35.317C107.166 35.5168 107.54 35.6167 107.979 35.6167C108.658 35.6167 109.18 35.4268 109.547 35.0475C109.913 34.6681 110.143 34.1587 110.236 33.5195H112.972C112.786 34.8912 112.253 35.9362 111.375 36.6553C110.495 37.3742 109.37 37.7337 107.999 37.7337C107.227 37.7337 106.518 37.6041 105.872 37.3444C105.226 37.0848 104.676 36.722 104.224 36.2558C103.771 35.79 103.419 35.2339 103.165 34.5882C102.913 33.9424 102.786 33.2335 102.786 32.461C102.786 31.6621 102.903 30.9201 103.136 30.2342C103.368 29.5484 103.711 28.9559 104.164 28.4566C104.617 27.9572 105.169 27.5677 105.822 27.2881C106.474 27.0084 107.22 26.8687 108.059 26.8687C108.671 26.8687 109.26 26.9485 109.827 27.1083C110.392 27.2681 110.898 27.5112 111.344 27.8374C111.79 28.1638 112.154 28.5697 112.433 29.0556C112.712 29.542 112.872 30.1177 112.912 30.7833H110.136C109.949 29.5985 109.25 29.0057 108.039 29.0057Z" fill="#002F6D"/>
<path d="M138.867 33.5294C138.947 33.9225 139.083 34.2753 139.276 34.588C139.469 34.9011 139.726 35.1507 140.045 35.3371C140.365 35.5237 140.764 35.6167 141.244 35.6167C141.723 35.6167 142.126 35.5237 142.452 35.3371C142.778 35.1507 143.038 34.9011 143.231 34.588C143.424 34.2753 143.56 33.9225 143.64 33.5294C143.72 33.1369 143.76 32.734 143.76 32.3212C143.76 31.9087 143.72 31.5023 143.64 31.1029C143.56 30.7034 143.424 30.3508 143.231 30.0441C143.038 29.7381 142.778 29.4886 142.452 29.2952C142.126 29.1024 141.723 29.0057 141.244 29.0057C140.764 29.0057 140.365 29.1024 140.045 29.2952C139.726 29.4886 139.469 29.7381 139.276 30.0441C139.083 30.3508 138.947 30.7034 138.867 31.1029C138.787 31.5023 138.747 31.9087 138.747 32.3212C138.747 32.734 138.787 33.1369 138.867 33.5294ZM136.29 30.0742C136.543 29.402 136.903 28.8294 137.369 28.3565C137.835 27.884 138.394 27.5177 139.046 27.2581C139.699 26.9984 140.431 26.8687 141.244 26.8687C142.056 26.8687 142.791 26.9984 143.451 27.2581C144.11 27.5177 144.672 27.884 145.138 28.3565C145.604 28.8294 145.964 29.402 146.217 30.0742C146.47 30.7466 146.596 31.4957 146.596 32.3212C146.596 33.1469 146.47 33.8924 146.217 34.5581C145.964 35.2241 145.604 35.7932 145.138 36.2657C144.672 36.7386 144.11 37.1015 143.451 37.3543C142.791 37.6071 142.056 37.7338 141.244 37.7338C140.431 37.7338 139.699 37.6071 139.046 37.3543C138.394 37.1015 137.835 36.7386 137.369 36.2657C136.903 35.7932 136.543 35.2241 136.29 34.5581C136.038 33.8924 135.911 33.1469 135.911 32.3212C135.911 31.4957 136.038 30.7466 136.29 30.0742Z" fill="#002F6D"/>
<path d="M107.395 47.6956C107.474 44.3039 109.15 42.4189 112.66 42.4189H113.457V45.1557L112.231 45.1823C110.763 45.1823 110.072 46.1285 110.072 47.6557V53.1099H107.395V47.6956Z" fill="#002F6D"/>
<path d="M120.804 45.0556C120.468 44.6866 119.957 44.5019 119.271 44.5019C118.823 44.5019 118.451 44.5777 118.154 44.7291C117.857 44.8812 117.62 45.0689 117.443 45.2927C117.264 45.5168 117.139 45.7544 117.067 46.0048C116.994 46.2552 116.952 46.4792 116.939 46.6768H121.506C121.374 45.9651 121.14 45.4247 120.804 45.0556ZM117.631 50.4338C118.052 50.8425 118.659 51.0467 119.449 51.0467C120.016 51.0467 120.504 50.9052 120.913 50.6217C121.321 50.3385 121.571 50.0382 121.664 49.7221H124.136C123.74 50.9479 123.134 51.8248 122.317 52.3518C121.499 52.8793 120.51 53.1425 119.351 53.1425C118.547 53.1425 117.821 53.0143 117.175 52.757C116.529 52.5 115.982 52.1342 115.534 51.6599C115.086 51.185 114.74 50.6185 114.496 49.9592C114.252 49.3005 114.13 48.5752 114.13 47.7841C114.13 47.0198 114.255 46.3081 114.506 45.6487C114.756 44.9896 115.113 44.4197 115.574 43.9384C116.035 43.4573 116.585 43.0783 117.225 42.8015C117.864 42.5246 118.572 42.3861 119.351 42.3861C120.22 42.3861 120.978 42.5545 121.625 42.8904C122.27 43.2262 122.801 43.6781 123.216 44.2449C123.632 44.8118 123.931 45.4578 124.116 46.1826C124.3 46.9076 124.366 47.6655 124.313 48.4565H116.939C116.978 49.3658 117.208 50.0253 117.631 50.4338Z" fill="#002F6D"/>
<path d="M93.4465 41.6475H90.8074V39.2441H93.4465V41.6475Z" fill="#002F6D"/>
<path d="M93.4459 53.1398H90.8074V42.8555H93.4459V53.1398Z" fill="#002F6D"/>
</svg>
