<svg width="163" height="80" viewBox="0 0 163 80" fill="none" xmlns="http://www.w3.org/2000/svg">
<g clip-path="url(#clip0_0_374)">
<path fill-rule="evenodd" clip-rule="evenodd" d="M48.1428 41.4354H39.6922L31.2415 49.886H48.1428L56.5936 41.4354H48.1428Z" fill="#5B0BE1"/>
<path fill-rule="evenodd" clip-rule="evenodd" d="M39.6922 41.4354L31.2416 49.886L48.1427 41.4354H39.6922Z" fill="#310F78"/>
<path fill-rule="evenodd" clip-rule="evenodd" d="M39.6922 32.9847L31.2416 41.4353H39.6922H48.1427L56.5935 32.9847H39.6922Z" fill="#0096FC"/>
<path fill-rule="evenodd" clip-rule="evenodd" d="M62.9312 47.6955V46.613L71.9836 37.0079H63.1155L63.8997 35.8334H73.8723V36.9158L64.8199 46.5207H74.3791L74.1257 47.6955H62.9312Z" fill="black"/>
<mask id="mask0_0_374" style="mask-type:alpha" maskUnits="userSpaceOnUse" x="79" y="35" width="13" height="14">
<path d="M79.2621 35.4647H91.7923V48.0641H79.2621V35.4647Z" fill="white"/>
</mask>
<g mask="url(#mask0_0_374)">
<path fill-rule="evenodd" clip-rule="evenodd" d="M90.3643 41.0618C90.3487 39.6647 89.9265 38.5783 89.0972 37.8028C88.268 37.0276 87.1084 36.6393 85.6194 36.6393C84.2216 36.6393 83.0817 37.0425 82.1988 37.8488C81.3156 38.6547 80.8284 39.726 80.7364 41.0618H90.3643ZM80.6902 42.1676C80.7209 43.6266 81.1774 44.7743 82.0607 45.6111C82.9435 46.4481 84.1451 46.8661 85.6652 46.8661C86.8476 46.8661 87.8265 46.667 88.6019 46.2674C89.3772 45.8683 89.9036 45.2924 90.1799 44.5399H91.5847C91.2626 45.6916 90.5948 46.5668 89.5811 47.1658C88.5675 47.7647 87.2469 48.0641 85.6194 48.0641C83.6228 48.0641 82.0644 47.5227 80.9436 46.4403C79.8225 45.3576 79.2621 43.8338 79.2621 41.8682C79.2621 40.6092 79.5155 39.4995 80.0223 38.5398C80.5292 37.5804 81.262 36.8278 82.2217 36.2824C83.1814 35.7377 84.314 35.4647 85.6194 35.4647C87.5539 35.4647 89.0662 35.991 90.157 37.0425C91.2471 38.0945 91.7923 39.5648 91.7923 41.4536V42.1676H80.6902Z" fill="black"/>
</g>
<path fill-rule="evenodd" clip-rule="evenodd" d="M108.929 47.6955V40.2788C108.929 37.8987 107.662 36.7087 105.129 36.7087C104.437 36.7087 103.77 36.8238 103.125 37.054C102.48 37.2845 101.919 37.5994 101.443 37.9985C100.445 38.797 99.946 39.7185 99.946 40.7624V47.6955H98.4947V35.8334H99.9227V38.1826C100.537 37.3074 101.316 36.6358 102.261 36.1672C103.205 35.6991 104.261 35.4647 105.428 35.4647C107.04 35.4647 108.268 35.8563 109.113 36.6394C109.957 37.4227 110.38 38.5668 110.38 40.0714V47.6955H108.929Z" fill="black"/>
<path fill-rule="evenodd" clip-rule="evenodd" d="M118.626 47.6954V36.985H116.276V35.8334H118.626V34.6356C118.626 33.5148 118.99 32.6395 119.72 32.0097C120.449 31.3804 121.466 31.0654 122.772 31.0654C123.555 31.0654 124.292 31.1729 124.983 31.3879L124.706 32.5165C124.138 32.3631 123.562 32.2861 122.979 32.2861C121.044 32.2861 120.077 33.0693 120.077 34.6356V35.8334H124.338V36.985H120.077V47.6954H118.626Z" fill="black"/>
<path fill-rule="evenodd" clip-rule="evenodd" d="M131.19 47.6955H132.641V35.8334H131.19V47.6955Z" fill="black"/>
<path fill-rule="evenodd" clip-rule="evenodd" d="M133 32.5682C133 33.167 132.515 33.6525 131.916 33.6525C131.317 33.6525 130.832 33.167 130.832 32.5682C130.832 31.9694 131.317 31.484 131.916 31.484C132.515 31.484 133 31.9694 133 32.5682Z" fill="black"/>
</g>
<defs>
<clipPath id="clip0_0_374">
<rect width="101.953" height="19.2085" fill="white" transform="translate(31.0473 30.8929)"/>
</clipPath>
</defs>
</svg>
