<svg width="163" height="80" viewBox="0 0 163 80" fill="none" xmlns="http://www.w3.org/2000/svg">
<path fill-rule="evenodd" clip-rule="evenodd" d="M53.4956 43.6396C53.3432 44.1714 53.2053 44.688 53.084 45.1805C52.9313 45.8008 52.7907 46.3642 52.6637 46.8697C52.5385 47.365 52.4503 47.7635 52.4009 48.0545C52.2999 48.5709 51.9621 48.8966 51.4226 49.0027C50.958 49.0944 50.4589 49.0564 49.9444 48.8891C49.4376 48.7237 48.9761 48.4365 48.5728 48.0351C48.1497 47.6139 47.935 47.0839 47.935 46.4602C47.935 45.9524 48.0621 45.15 48.3237 44.0069C48.5781 42.8923 48.9459 41.5698 49.4173 40.0765C49.8849 38.5943 50.4518 36.9618 51.102 35.224C51.6614 33.7306 52.2876 32.2277 52.9679 30.7458C53.1906 30.2603 53.6508 29.9262 54.1815 29.8646C55.3829 29.725 56.4252 29.7593 57.3079 29.9678C57.8396 30.0931 58.1257 30.6717 57.9026 31.1704C57.3332 32.443 56.8078 33.7124 56.3388 34.948C55.9592 35.9489 55.5948 36.939 55.2517 37.9021C55.2179 37.9968 55.3147 38.0854 55.4061 38.0434C55.864 37.8325 56.3165 37.5839 56.7583 37.3002C57.4828 36.8348 58.1426 36.2789 58.7197 35.6479C59.2948 35.0184 59.7664 34.3076 60.1209 33.5351C60.4717 32.7711 60.6496 31.9397 60.6496 31.0642C60.6496 29.9383 60.3379 29.1071 59.7234 28.5936C59.1014 28.0741 58.225 27.8109 57.1188 27.8109C55.9405 27.8109 54.8633 28.0904 53.9166 28.6419C52.9463 29.2067 52.1067 29.9022 51.4209 30.7093C50.7309 31.5205 50.1874 32.3879 49.8056 33.2873C49.4273 34.1791 49.2353 34.9608 49.2353 35.6108C49.2353 36.0769 48.9893 36.4136 48.5427 36.5585C48.1511 36.6859 47.7199 36.6676 47.2768 36.502C46.8505 36.343 46.4558 36.03 46.103 35.5716C45.7478 35.1107 45.5678 34.4865 45.5678 33.7166C45.5678 33.0447 45.8224 32.2528 46.3458 31.296C46.8564 30.3636 47.6104 29.4559 48.5871 28.5982C49.5624 27.7416 50.7938 26.9984 52.2473 26.3896C53.71 25.7771 55.4006 25.4667 57.2716 25.4667C58.3374 25.4667 59.4058 25.5915 60.4471 25.8379C61.4971 26.0867 62.4486 26.4651 63.2752 26.9625C64.1119 27.4659 64.7989 28.098 65.3172 28.8415C65.8448 29.5979 66.1122 30.485 66.1122 31.478C66.1122 32.5479 65.8774 33.5509 65.4143 34.459C64.9548 35.359 64.3231 36.1807 63.5366 36.9016C62.7575 37.6166 61.8339 38.2477 60.7915 38.777C59.9318 39.213 59.0175 39.5847 58.0687 39.8842C58.0084 39.9032 57.9866 39.9344 57.9893 39.9974C58.0099 40.4708 58.0437 40.9372 58.0905 41.3878C58.1442 41.9045 58.2155 42.4087 58.3023 42.8865C58.3876 43.3561 58.4902 43.8137 58.607 44.2467C58.6976 44.5816 58.7985 44.9081 58.9071 45.2171C58.9763 45.4146 59.049 45.6071 59.1233 45.7891C59.2715 46.1545 59.4352 46.5039 59.6094 46.8282C59.78 47.1462 59.9652 47.4482 60.1598 47.7259C60.3489 47.9962 60.5522 48.2508 60.7642 48.4828C60.9704 48.7082 61.1885 48.9162 61.413 49.1011C61.6319 49.2815 61.8623 49.4443 62.0983 49.5854C62.3279 49.7225 62.5687 49.8418 62.8139 49.9402C63.0558 50.0369 63.3064 50.1147 63.5583 50.1712C63.81 50.2278 64.0708 50.2649 64.3333 50.2818C64.5958 50.2983 64.8688 50.2945 65.1413 50.2702C65.4181 50.2459 65.7011 50.1999 65.9832 50.1337C66.271 50.0661 66.5649 49.9759 66.857 49.8654C67.1561 49.7524 67.4588 49.6159 67.7572 49.4598C67.8714 49.4003 67.9865 49.3372 68.1013 49.2708C68.4738 49.0558 68.9487 49.1583 69.1991 49.508C69.4495 49.8577 69.3937 50.3404 69.07 50.6236C68.9113 50.7627 68.752 50.898 68.5935 51.0284C68.2108 51.3426 67.8264 51.6339 67.4514 51.8942C67.0941 52.1422 66.7319 52.3716 66.3745 52.5758C66.195 52.6785 66.0069 52.7799 65.8163 52.8769C65.4487 53.0632 65.0766 53.2276 64.7104 53.3657C64.3447 53.503 63.9779 53.6163 63.6201 53.7028C63.2625 53.7894 62.9028 53.8519 62.5508 53.8882C62.3004 53.9137 62.0493 53.9267 61.8044 53.9267C61.7053 53.9267 61.6065 53.9247 61.5074 53.9204C61.1676 53.9058 60.8291 53.8655 60.5016 53.8007C60.3389 53.7688 60.1757 53.73 60.0159 53.685C59.8614 53.6424 59.7027 53.5913 59.5442 53.5335C59.2388 53.4222 58.9368 53.2851 58.6476 53.1263C58.3634 52.9704 58.0847 52.79 57.8196 52.5903C57.6057 52.4288 57.3957 52.2516 57.1959 52.063C56.9555 51.8363 56.7218 51.5856 56.5004 51.3177C56.2824 51.0537 56.073 50.7682 55.8783 50.4689C55.6836 50.1699 55.4991 49.8517 55.3296 49.5226C55.1596 49.1939 54.9997 48.8445 54.8536 48.4841C54.7094 48.128 54.574 47.749 54.4518 47.3578C54.332 46.9734 54.2217 46.5662 54.1245 46.1472C54.0278 45.7288 53.9438 45.2946 53.874 44.8564C53.812 44.4693 53.7595 44.0674 53.7177 43.6593C53.705 43.5349 53.53 43.5195 53.4956 43.6396Z" fill="#FD6250"/>
<mask id="mask0_0_275" style="mask-type:luminance" maskUnits="userSpaceOnUse" x="111" y="24" width="7" height="8">
<path fill-rule="evenodd" clip-rule="evenodd" d="M111.029 24.8099H117.391V31.1713H111.029V24.8099Z" fill="white"/>
</mask>
<g mask="url(#mask0_0_275)">
<path fill-rule="evenodd" clip-rule="evenodd" d="M117.391 27.9904C117.391 29.7471 115.967 31.1711 114.21 31.1711C112.454 31.1711 111.029 29.7471 111.029 27.9904C111.029 26.2338 112.454 24.8097 114.21 24.8097C115.967 24.8097 117.391 26.2338 117.391 27.9904Z" fill="#FD6250"/>
</g>
<path fill-rule="evenodd" clip-rule="evenodd" d="M102.318 36.7126C102.219 37.2717 102.061 37.9164 101.849 38.6285C101.635 39.3391 101.363 40.0887 101.041 40.8491C100.69 41.6164 100.328 42.3334 99.9633 42.9802C99.6027 43.6198 99.2441 44.1701 98.8986 44.6157C98.5614 45.0499 98.2494 45.3709 97.9704 45.5702C97.7601 45.7206 97.6438 45.7367 97.6034 45.7367C97.5849 45.7367 97.5698 45.7337 97.5536 45.7264C97.5188 45.7109 97.4012 45.6301 97.3503 45.248C97.3027 44.8982 97.328 44.439 97.4255 43.8822C97.5249 43.3082 97.6828 42.6583 97.8954 41.9501C98.1062 41.2431 98.3787 40.4938 98.7057 39.7228C99.0296 38.9583 99.3839 38.2449 99.7591 37.6019C100.133 36.9597 100.498 36.4153 100.843 35.9833C101.178 35.5616 101.491 35.2454 101.773 35.0435C101.984 34.893 102.1 34.8767 102.14 34.8767C102.159 34.8767 102.174 34.8799 102.189 34.8864C102.223 34.902 102.341 34.983 102.393 35.3653C102.44 35.7154 102.415 36.1686 102.318 36.7126ZM88.0766 36.7127C87.9771 37.272 87.819 37.9166 87.6068 38.6285C87.3927 39.3427 87.1197 40.0922 86.799 40.8491C86.4479 41.6177 86.0854 42.3348 85.722 42.9802C85.3608 43.6202 85.0024 44.1705 84.6565 44.6157C84.3202 45.0496 84.0081 45.3706 83.7282 45.5703C83.5182 45.7206 83.4022 45.7367 83.3621 45.7367C83.3432 45.7367 83.328 45.7337 83.3119 45.7264C83.2772 45.7109 83.1599 45.6304 83.1085 45.2479C83.0612 44.8998 83.0864 44.4402 83.1836 43.8822C83.2827 43.3103 83.441 42.6604 83.6537 41.9501C83.8646 41.2428 84.1373 40.4934 84.4644 39.7227C84.789 38.9564 85.143 38.2429 85.5169 37.602C85.8927 36.959 86.2572 36.4143 86.6006 35.9834C86.9371 35.5607 87.2502 35.2443 87.5311 35.0434C87.7419 34.893 87.8582 34.8767 87.8984 34.8767C87.9173 34.8767 87.9328 34.8799 87.9469 34.8864C87.9819 34.902 88.0996 34.983 88.1513 35.3653C88.1982 35.7144 88.1731 36.1678 88.0766 36.7127ZM72.6677 36.6787C72.6061 37.2458 72.4861 37.8946 72.3112 38.6068C72.1361 39.3163 71.8957 40.0638 71.5969 40.8289C71.2989 41.5902 70.9815 42.3063 70.6532 42.9573C70.3313 43.5931 70.0058 44.1355 69.6855 44.5695C69.3733 44.9917 69.08 45.3062 68.8134 45.5047C68.616 45.6521 68.5069 45.668 68.4692 45.668C68.452 45.668 68.4373 45.6649 68.4214 45.6575C68.3851 45.6414 68.262 45.5584 68.1978 45.1704C68.1375 44.8155 68.132 44.3573 68.1807 43.8085C68.2302 43.2503 68.3437 42.6092 68.5177 41.903C68.6917 41.1962 68.9321 40.4486 69.2324 39.6811C69.5344 38.9099 69.852 38.1937 70.1767 37.5521C70.4971 36.9168 70.823 36.3678 71.1458 35.9204C71.4564 35.4889 71.7492 35.1694 72.0155 34.9707C72.213 34.8238 72.3223 34.8078 72.3602 34.8078C72.378 34.8078 72.3926 34.8109 72.4066 34.8171C72.4442 34.8342 72.5734 34.9205 72.6523 35.3136C72.7229 35.6628 72.728 36.1221 72.6677 36.6787ZM116.681 40.8203C116.526 40.5798 116.228 40.4244 115.92 40.4244C115.629 40.4244 115.367 40.561 115.202 40.7994C115.014 41.0723 114.781 41.3964 114.511 41.7626C114.214 42.1642 113.894 42.5494 113.559 42.9072C113.226 43.2632 112.902 43.5728 112.595 43.8273C112.277 44.0907 112.072 44.1459 111.956 44.1459C111.874 44.1459 111.723 44.1459 111.689 43.7456C111.653 43.3263 111.715 42.7812 111.874 42.1252C112.035 41.4511 112.269 40.7029 112.57 39.9014C112.876 39.0855 113.183 38.3063 113.483 37.5854C113.794 36.8362 114.062 36.2132 114.3 35.681C114.538 35.1513 114.687 34.8065 114.744 34.6558C114.934 34.2194 114.865 33.7892 114.543 33.4113C114.247 33.065 113.852 32.8222 113.368 32.6897C112.895 32.5602 112.38 32.5527 111.843 32.6673C111.268 32.7904 110.812 33.123 110.488 33.6554C110.202 34.1229 109.83 34.8572 109.383 35.838C108.934 36.821 108.501 37.9126 108.094 39.0822C107.848 39.7916 107.62 40.5127 107.414 41.2387C107.072 42.4461 106.367 43.5193 105.395 44.3135C105.047 44.5978 104.681 44.8657 104.3 45.1148C104.132 45.2251 103.962 45.3272 103.792 45.4208C103.738 45.4504 103.682 45.3854 103.72 45.3368C104.013 44.95 104.302 44.5322 104.584 44.0856C105.164 43.1662 105.693 42.0651 106.156 40.813C106.646 39.4872 106.953 38.278 107.069 37.2185C107.186 36.146 107.145 35.2102 106.947 34.437C106.743 33.6386 106.385 33.0106 105.883 32.5702C105.364 32.1152 104.722 31.8844 103.976 31.8844C103.096 31.8844 102.288 32.1172 101.573 32.5763C101.085 32.89 100.632 33.2403 100.222 33.6224C100.188 33.6541 100.16 33.6504 100.135 33.6112C100.044 33.4661 99.9214 33.3295 99.7673 33.2016C99.4204 32.915 99.0031 32.7231 98.5262 32.6313C98.0477 32.5405 97.5615 32.5733 97.0875 32.729C96.5804 32.8955 96.2022 33.2397 95.9632 33.7525C95.5046 34.7404 95.0204 35.8933 94.5238 37.1792C94.0284 38.4633 93.5455 39.8055 93.0876 41.1688C93.037 41.3201 92.9865 41.4713 92.9362 41.6225C92.5498 42.7852 91.8238 43.8054 90.852 44.5517C90.5959 44.7485 90.3308 44.9366 90.0584 45.1148C89.8901 45.2251 89.7204 45.3272 89.5502 45.4209C89.4965 45.4505 89.4404 45.3856 89.4776 45.3368C89.7712 44.9503 90.0599 44.5326 90.3416 44.0858C90.9222 43.1669 91.4513 42.066 91.9147 40.813C92.4039 39.4871 92.7108 38.2778 92.827 37.2185C92.9442 36.1456 92.9035 35.2097 92.7056 34.437C92.5014 33.6389 92.1436 33.0109 91.6417 32.5702C91.1223 32.1151 90.4805 31.8844 89.735 31.8844C88.8545 31.8844 88.046 32.1172 87.3313 32.5761C86.8427 32.89 86.3902 33.2403 85.9805 33.6221C85.9466 33.6539 85.9185 33.6502 85.8939 33.6108C85.8027 33.466 85.6797 33.3294 85.5254 33.2017C85.1789 32.9151 84.7615 32.7233 84.2841 32.6313C83.8056 32.5403 83.3191 32.5734 82.846 32.729C82.3395 32.8952 81.961 33.2394 81.7211 33.7527C81.2624 34.7421 80.7782 35.8949 80.2823 37.1793C79.817 38.386 79.3644 39.6384 78.935 40.9059C78.6111 41.8626 78.1261 42.6312 77.4022 43.3353C77.2152 43.517 77.033 43.6816 76.8571 43.8273C76.5396 44.0907 76.3344 44.1459 76.218 44.1459C76.1367 44.1459 75.9851 44.1459 75.9512 43.7453C75.9154 43.3271 75.9774 42.7821 76.1356 42.1252C76.2971 41.4515 76.5315 40.7032 76.8321 39.9014C77.1348 39.0939 77.4422 38.3146 77.745 37.5854C78.0509 36.8503 78.326 36.2094 78.5627 35.681C78.8051 35.1408 78.9501 34.8052 79.0056 34.6556C79.1969 34.2194 79.1274 33.7892 78.8053 33.4113C78.5089 33.0643 78.1065 32.8213 77.6085 32.6888C77.1223 32.5601 76.6083 32.5528 76.0839 32.6677C75.5226 32.7911 75.0734 33.1235 74.7498 33.6545C74.685 33.7596 74.6176 33.8755 74.5461 34.0043C74.5206 34.0503 74.4519 34.04 74.4409 33.9886C74.3793 33.6986 74.28 33.4245 74.1442 33.1697C73.9405 32.7901 73.6391 32.4786 73.2484 32.2437C72.8514 32.0053 72.3476 31.8844 71.751 31.8844C70.3441 31.8844 68.9173 32.5336 67.5104 33.8142C66.1291 35.0717 64.9842 37.0778 64.1065 39.7784C63.6946 41.0806 63.4531 42.2842 63.3883 43.356C63.323 44.4408 63.4107 45.377 63.6481 46.1381C63.8928 46.9229 64.2836 47.5425 64.8102 47.9792C65.353 48.4307 66.0055 48.6597 66.749 48.6597C67.2993 48.6597 67.8241 48.5647 68.3093 48.3773C68.7795 48.1956 69.2154 47.9621 69.6049 47.6835C69.9046 47.4692 70.1837 47.2268 70.4372 46.9602C70.6179 46.7702 70.9363 46.847 71.0108 47.0982C71.094 47.3799 71.2102 47.6305 71.3588 47.8486C71.7263 48.3866 72.308 48.6597 73.0875 48.6597C73.951 48.6597 74.8236 48.3358 75.6808 47.6971C76.0804 47.3998 76.4708 47.0754 76.8491 46.7266C76.9341 46.6483 77.0681 46.7322 77.0347 46.8429C76.8139 47.5774 76.6156 48.258 76.4371 48.8965C76.136 49.9698 75.8911 50.8943 75.7091 51.6444C75.4654 52.6505 75.434 52.924 75.434 53.0502C75.434 53.667 75.6256 54.1928 76.0038 54.6134C76.3691 55.0178 76.7924 55.308 77.2633 55.476C77.5731 55.5859 77.8756 55.6417 78.1616 55.6417C78.32 55.6417 78.4762 55.6245 78.6262 55.5907C78.9636 55.5143 79.3919 55.2893 79.5167 54.6512L79.5188 54.6388C79.5684 54.3028 79.663 53.8475 79.8002 53.2854C79.9425 52.7022 80.1155 52.0383 80.3145 51.312C80.5108 50.5897 80.7355 49.7851 81.0005 48.8521C81.1229 48.421 81.2543 47.9693 81.3939 47.4999C81.4225 47.4044 81.5514 47.3892 81.6012 47.4755C81.6633 47.5828 81.7325 47.6876 81.8087 47.7895C82.2383 48.3653 82.9237 48.6579 83.8461 48.6597C84.0314 48.6679 84.2174 48.6722 84.3992 48.6722H84.3994C85.7558 48.6722 87.0297 48.4394 88.1855 47.9803C89.29 47.5423 90.3018 47.0069 91.2031 46.3872C91.2915 46.3263 91.4072 46.4109 91.3761 46.5137C91.1174 47.3662 90.8839 48.164 90.6787 48.8966C90.376 49.9775 90.131 50.902 89.9504 51.6445C89.7071 52.6524 89.6757 52.9252 89.6757 53.0502C89.6757 53.6668 89.8672 54.1925 90.2456 54.6134C90.6108 55.0181 91.0343 55.3083 91.5051 55.476C91.8151 55.5858 92.1169 55.6417 92.4031 55.6417C92.5613 55.6417 92.7178 55.6245 92.8683 55.5907C93.2057 55.5143 93.6338 55.2893 93.7586 54.6512L93.7608 54.6386C93.8103 54.3015 93.9051 53.8462 94.0423 53.2853C94.1843 52.7024 94.357 52.0386 94.556 51.312C94.7536 50.5866 94.9781 49.782 95.2424 48.8521C95.365 48.4202 95.4964 47.9683 95.6357 47.4996C95.6641 47.4041 95.793 47.3889 95.843 47.475C95.9051 47.5825 95.9744 47.6874 96.0508 47.7894C96.4799 48.3651 97.1654 48.6579 98.0882 48.6597C98.2733 48.6679 98.4592 48.6722 98.6411 48.6722H98.6413C99.9973 48.6722 101.271 48.4394 102.427 47.9803C103.721 47.4673 104.891 46.8213 105.903 46.0602C106.076 45.9306 106.243 45.7996 106.407 45.6673C106.482 45.6067 106.593 45.6612 106.592 45.7574C106.591 45.8008 106.591 45.8438 106.591 45.8864C106.591 46.696 106.761 47.3562 107.097 47.8486C107.464 48.3866 108.046 48.6597 108.825 48.6597C109.687 48.6597 110.566 48.3364 111.436 47.6986C112.263 47.093 113.044 46.3767 113.757 45.5699C114.46 44.7746 115.078 43.9819 115.594 43.2141C116.116 42.4369 116.467 41.9055 116.668 41.5893C116.828 41.337 116.833 41.0566 116.681 40.8203Z" fill="#FD6250"/>
</svg>
