<svg width="163" height="80" viewBox="0 0 163 80" fill="none" xmlns="http://www.w3.org/2000/svg">
<g clip-path="url(#clip0_0_287)">
<mask id="mask0_0_287" style="mask-type:luminance" maskUnits="userSpaceOnUse" x="41" y="27" width="81" height="26">
<path d="M121.303 27.7869H41.7525V52.5359H121.303V27.7869Z" fill="white"/>
</mask>
<g mask="url(#mask0_0_287)">
<path d="M46.1631 47.0232H41.7525C42.8483 40.7065 43.9333 34.4408 45.0309 28.1204C48.1532 28.1204 51.2415 27.9162 54.2949 28.1678C58.7727 28.538 60.0318 32.9127 58.5822 36.2333C57.8583 37.8909 57.1105 38.6678 54.7828 40.2761C55.6645 42.5045 56.5484 44.7347 57.4734 47.0706C55.9279 47.0706 54.4942 47.087 53.061 47.0524C52.8617 47.0469 52.5678 46.8354 52.4878 46.6457C51.2486 43.6587 50.0368 40.6609 48.8263 37.6612C48.7613 37.4989 48.7648 37.3074 48.7251 37.0485C49.7172 37.0485 50.7041 36.9846 51.6786 37.0631C53.3098 37.1944 54.7121 35.5313 54.6052 34.1417C54.5234 33.0823 53.9701 32.3583 52.9178 32.3146C51.7131 32.2635 50.503 32.269 49.2983 32.331C49.0605 32.3437 48.6813 32.7012 48.638 32.9491C47.8774 37.3183 47.1609 41.6948 46.4261 46.0695C46.3735 46.3868 46.2574 46.6931 46.1649 47.0232H46.1631Z" fill="black"/>
<path d="M97.3467 41.4415C98.5947 38.8466 99.7305 36.456 100.906 34.0835C101.021 33.8538 101.115 33.6076 101.115 33.6076C101.115 33.6076 104.214 33.5857 105.62 33.5857C104.755 35.2798 103.944 36.8972 103.107 38.5001C102.212 40.2143 101.316 41.9284 100.385 43.6242C99.384 45.4478 98.4626 47.3297 97.2923 49.0402C95.6102 51.4965 93.2047 52.6909 90.0205 52.5213C90.2326 51.1828 90.4359 49.9063 90.6445 48.5806C91.8802 48.5842 93.0032 48.2761 93.7399 47.2695C94.0391 46.8592 94.2751 46.1954 94.1735 45.7286C93.6219 43.1775 92.9471 40.6556 92.3337 38.119C91.9779 36.6511 91.657 35.1758 91.2942 33.5894C92.731 33.5894 95.8281 33.6295 95.8281 33.6295C95.8281 33.6295 95.9625 34.1583 96.0292 34.4847C96.4902 36.7532 96.8985 39.0326 97.3484 41.4451L97.3467 41.4415Z" fill="black"/>
<path fill-rule="evenodd" clip-rule="evenodd" d="M121.301 27.7869H117.097C117.031 28.1953 116.962 28.5961 116.894 28.992C116.739 29.8971 116.588 30.7764 116.49 31.6619L116.375 32.6922C116.375 32.6922 112.973 32.8198 112.01 32.8709C111.491 32.9001 110.963 33.0295 110.468 33.1991C106.703 34.4847 104.236 39.1566 105.112 42.8438C105.714 45.3748 107.126 46.8647 109.352 47.0233C111.315 47.1643 113.29 47.1328 115.305 47.1007C116.183 47.0867 117.07 47.0726 117.966 47.0726C118.637 43.1925 119.306 39.3245 119.977 35.4464C120.417 32.8997 120.858 30.3486 121.301 27.7869ZM114.52 42.71L114.459 43.0662C114.12 43.0662 113.784 43.0688 113.449 43.0714C113.4 43.0718 113.35 43.0722 113.301 43.0726C112.562 43.0781 111.831 43.0817 111.101 43.0553C110.42 43.0314 109.62 42.3401 109.354 41.6436C109.317 41.5441 109.29 41.4445 109.276 41.3468C109.035 39.6831 109.714 38.2159 110.814 37.4377C110.848 37.4133 110.884 37.3895 110.919 37.3665C111.395 37.0557 111.945 36.871 112.529 36.8498C112.534 36.8496 112.539 36.8495 112.544 36.8493C112.623 36.8464 112.701 36.843 112.779 36.839C113.363 36.8094 113.949 36.7506 114.56 36.6893C114.884 36.6567 115.215 36.6235 115.558 36.5934C115.561 36.5932 115.563 36.593 115.566 36.5927C115.206 38.6997 114.867 40.6814 114.52 42.71Z" fill="black"/>
<path fill-rule="evenodd" clip-rule="evenodd" d="M78.3828 48.5279L78.5724 47.4371L78.5701 47.4335H82.4946C84.6173 47.4317 86.2976 46.3758 87.5894 44.8586C89.3673 42.7707 90.2636 40.2998 89.701 37.4843C89.2365 35.1575 87.6747 33.4069 85.4084 33.2591C83.2614 33.1185 80.6866 33.169 78.3735 33.2145C77.8387 33.225 77.3177 33.2352 76.8196 33.2427L76.718 33.7825C76.718 33.7825 75.8416 38.7662 75.4116 41.259C75.2317 42.3035 75.05 43.3477 74.868 44.3919C74.5807 46.0441 74.293 47.6964 74.0128 49.35C73.8952 50.0511 73.7962 50.7555 73.6968 51.4677C73.6486 51.8096 73.6009 52.1533 73.5501 52.4993H77.692C77.9227 51.1741 78.1485 49.8739 78.3828 48.5279ZM79.74 40.6655C79.9481 39.4592 80.1585 38.2422 80.3773 36.9737C80.3781 36.9737 80.3786 36.9738 80.379 36.9738C80.379 36.9738 80.379 36.9739 80.379 36.9738C80.7538 37.0015 81.1246 37.0217 81.4923 37.0419C82.3099 37.0867 83.1103 37.1307 83.8991 37.2527C85.1255 37.4423 85.9131 39.2549 85.4464 40.7047C84.7989 42.7233 83.6158 43.3397 81.7053 43.5949C81.6717 43.5994 81.6377 43.6036 81.6041 43.6074C81.0906 43.6663 80.5669 43.6488 80.0303 43.6309C79.7744 43.6223 79.5155 43.6137 79.2538 43.6132M79.74 40.6655C79.5703 41.6478 79.4019 42.6229 79.2309 43.6132L79.74 40.6655ZM79.2309 43.6132C79.2313 43.6132 79.2317 43.6132 79.2326 43.6132H79.2309Z" fill="black"/>
<path fill-rule="evenodd" clip-rule="evenodd" d="M72.3687 44.4525C73.0069 40.8069 73.6637 37.0548 74.3341 33.2209H74.3319C73.5178 33.2209 72.7126 33.2258 71.914 33.2307C70.1382 33.2416 68.3943 33.2522 66.6522 33.2081C63.9616 33.1407 62.1147 34.5466 60.5595 36.5306C59.1789 38.2903 58.8072 40.3309 58.9269 42.5191C59.0357 44.4812 59.9589 45.9473 61.6339 46.8518C62.3286 47.2275 63.2068 47.3898 64.0067 47.4116C65.8315 47.4613 67.6576 47.4529 69.5566 47.4442C70.3071 47.4407 71.069 47.4372 71.8464 47.4372C72.0192 46.4507 72.1933 45.4556 72.3687 44.4525ZM69.4696 37.0449V37.043C69.2124 37.043 68.9627 37.0347 68.7183 37.0266C68.2038 37.0095 67.7155 36.9933 67.2382 37.0576C65.0934 37.3457 63.936 37.7269 63.2068 40.1357C63.1343 40.3755 63.0892 40.6066 63.0689 40.8275C62.9429 42.1917 63.7605 43.1673 64.8415 43.3981C65.5937 43.5583 66.372 43.5948 67.1785 43.6326C67.5467 43.6499 67.921 43.6674 68.3011 43.6971V43.6989C68.7041 41.4031 69.078 39.275 69.4696 37.0449Z" fill="black"/>
</g>
</g>
<defs>
<clipPath id="clip0_0_287">
<rect width="79.9923" height="24.749" fill="white" transform="translate(41.5315 27.7869)"/>
</clipPath>
</defs>
</svg>
