<svg width="163" height="80" viewBox="0 0 163 80" fill="none" xmlns="http://www.w3.org/2000/svg">
<g clip-path="url(#clip0_0_303)">
<path d="M67.0673 27.1247C67.0673 26.5408 67.2848 26.036 67.7195 25.6105C68.1543 25.185 68.675 24.9723 69.2817 24.9723C69.8984 24.9723 70.424 25.185 70.8588 25.6105C71.2936 26.0263 71.511 26.5359 71.511 27.1394C71.511 27.7429 71.2936 28.2579 70.8588 28.6834C70.4341 29.1089 69.9133 29.3217 69.2966 29.3217C68.6801 29.3217 68.1538 29.1089 67.719 28.6834C67.2848 28.2579 67.0673 27.7386 67.0673 27.1247ZM70.9957 33.1365V47.5946H67.5831V33.1365H70.9957ZM71.0391 33.1365V47.5946H67.5437V33.1365H71.0391Z" fill="#000321"/>
<path d="M63.8356 40.373V47.5946H60.524V40.373C60.5188 38.9841 60.1403 37.8721 59.3881 37.0365C58.6222 36.187 57.6103 35.7615 56.3551 35.7615C55.1187 35.7615 54.1168 36.187 53.3509 37.0365C52.5987 37.8704 52.215 38.9385 52.2013 40.2472C52.1998 40.2733 52.1998 40.3014 52.1998 40.3297C52.1998 40.3421 52.2013 40.354 52.2013 40.3665V47.5946H48.8887V22.5485H52.2019V33.9907C53.4093 33.1639 54.7933 32.7508 56.3556 32.7508C58.4445 32.7508 60.2191 33.4881 61.6757 34.9612C63.1092 36.4304 63.8288 38.2348 63.8325 40.373H63.8356Z" fill="#000321"/>
<path d="M109.08 45.7541C109.08 45.1574 109.298 44.6417 109.732 44.207C110.167 43.7723 110.688 43.5549 111.295 43.5549C111.911 43.5549 112.437 43.7723 112.872 44.207C113.306 44.6317 113.524 45.1524 113.524 45.769C113.524 46.3856 113.306 46.9118 112.872 47.3466C112.447 47.7812 111.926 47.9986 111.309 47.9986C110.693 47.9986 110.167 47.7812 109.732 47.3466C109.298 46.9118 109.08 46.3806 109.08 45.7541Z" fill="#50FFB1"/>
<path fill-rule="evenodd" clip-rule="evenodd" d="M88.8775 40.298V32.6477H85.5691V33.8984C84.3556 33.0635 82.9682 32.6477 81.3989 32.6477C79.319 32.6477 77.5546 33.383 76.1062 34.8508C74.6577 36.3186 73.9348 38.1004 73.9348 40.1935C73.9348 42.4173 74.6451 44.2616 76.0631 45.7321C77.481 47.2207 79.2428 47.9641 81.3405 47.9641C82.9377 47.9641 84.3483 47.5505 85.5691 46.7216V50.0572C85.5691 51.4673 85.19 52.5923 84.434 53.4374C83.6758 54.2799 82.6648 54.7011 81.3982 54.7011C80.1423 54.7011 79.1313 54.2744 78.3626 53.4189C77.6245 52.5867 77.2533 51.4591 77.2428 50.0333H73.937C73.9596 52.2075 74.6672 54.0154 76.0625 55.4592C77.4805 56.9477 79.2423 57.6938 81.3399 57.6938C83.4581 57.6938 85.2473 56.9641 86.703 55.5039C88.1515 54.0361 88.8765 52.2151 88.8765 50.0408V50.0333H88.8817V40.298H88.8775ZM85.5691 40.3295C85.5691 41.737 85.19 42.8646 84.434 43.7071C83.6758 44.5522 82.6648 44.9736 81.3982 44.9736C80.1423 44.9736 79.1313 44.5447 78.3626 43.6913C77.6145 42.8488 77.2428 41.7027 77.2428 40.2534C77.2428 38.9031 77.6245 37.8021 78.3926 36.9488C79.1587 36.0959 80.1618 35.6693 81.3978 35.6693C82.6538 35.6693 83.6648 36.0959 84.4334 36.9488C85.1842 37.7859 85.5633 38.9031 85.5684 40.2975V40.3295H85.5691Z" fill="#000321"/>
<path d="M91.7094 40.3873C91.7094 38.2277 92.4336 36.3902 93.8818 34.8752C95.2314 33.4634 98.6642 30.9764 99.1241 30.6447C99.1552 30.6225 99.1953 30.6219 99.227 30.6447C99.6884 30.9759 103.139 33.4689 104.498 34.8902C105.937 36.4158 106.656 38.2887 106.656 40.5099C106.656 42.7516 105.932 44.6301 104.484 46.1451C103.026 47.6497 101.238 48.4025 99.1182 48.4025C97.0182 48.4025 95.2583 47.6346 93.8391 46.0991C92.4188 44.5841 91.7094 42.6801 91.7094 40.3873ZM95.0178 40.4484C95.0178 41.9428 95.3917 43.1251 96.1395 43.9954C96.9069 44.8758 97.9185 45.3158 99.1748 45.3158C100.44 45.3158 101.453 44.8808 102.21 44.0105C102.968 43.1405 103.346 41.9784 103.346 40.5249C103.346 39.0715 102.968 37.9097 102.21 37.0394C101.443 36.159 99.1821 34.5013 99.1821 34.5013C99.1821 34.5013 96.9354 36.159 96.1686 37.0394C95.4017 37.9203 95.0178 39.0564 95.0178 40.4484Z" fill="#000321"/>
</g>
<defs>
<clipPath id="clip0_0_303">
<rect width="64.6351" height="35.1453" fill="white" transform="translate(48.8887 22.5485)"/>
</clipPath>
</defs>
</svg>
