<svg width="163" height="80" viewBox="0 0 163 80" fill="none" xmlns="http://www.w3.org/2000/svg">
<g clip-path="url(#clip0_0_312)">
<mask id="mask0_0_312" style="mask-type:luminance" maskUnits="userSpaceOnUse" x="19" y="25" width="125" height="30">
<path d="M143.524 25.9548H19.3092V54.6622H143.524V25.9548Z" fill="white"/>
</mask>
<g mask="url(#mask0_0_312)">
<mask id="mask1_0_312" style="mask-type:luminance" maskUnits="userSpaceOnUse" x="19" y="25" width="125" height="30">
<path d="M143.524 25.9548H19.3092V54.6622H143.524V25.9548Z" fill="white"/>
</mask>
<g mask="url(#mask1_0_312)">
<path d="M143.17 36.3018C141.862 36.3975 138.873 36.768 138.018 36.8921C137.183 32.2691 134.867 28.9809 131.488 28.2063C124.604 26.6234 117.658 35.9012 112.908 53.0121L116.455 53.9994C121.019 37.5586 126.997 30.9591 130.667 31.8012C132.346 32.1858 133.796 34.2899 134.392 37.5603C125.618 39.5775 123.794 43.4134 123.998 46.5457C124.165 49.107 125.53 51.2182 127.742 52.3368C129.976 53.4658 132.699 53.3737 134.676 52.1045C137.162 50.5074 137.542 48.18 137.792 46.6396C137.792 46.6396 138.276 43.1104 138.316 41.671C136.933 41.8748 135.661 42.1301 134.609 42.4137C134.547 43.3992 134.16 46.0457 134.16 46.0457C133.926 47.4798 133.742 48.3253 132.688 49.0024C131.814 49.5643 130.462 49.5839 129.401 49.0468C128.669 48.6763 127.774 47.9017 127.672 46.3063C127.532 44.1491 130.022 42.3978 134.676 41.265C134.692 41.2633 134.703 41.2562 134.718 41.2527C138.091 40.4798 143.524 39.9693 143.524 39.9693L143.17 36.3018Z" fill="black"/>
<path d="M101.193 32.8148C96.9919 32.8148 93.5879 36.2235 93.5879 40.4299C93.5879 44.6363 96.9919 48.045 101.193 48.045C105.393 48.045 108.798 44.6363 108.798 40.4299C108.798 36.2235 105.393 32.8148 101.193 32.8148ZM101.193 44.7568C98.8065 44.7568 96.8715 42.8193 96.8715 40.4299C96.8715 38.0404 98.8065 36.103 101.193 36.103C103.579 36.103 105.514 38.0404 105.514 40.4299C105.514 42.8193 103.579 44.7568 101.193 44.7568Z" fill="black"/>
<path d="M59.1197 25.9547H55.4799V47.5166H59.1197V25.9547Z" fill="black"/>
<path d="M30.5713 33.0665V33.7738C29.4844 33.1729 28.2453 32.8148 26.914 32.8148C22.7133 32.8148 19.3092 36.2235 19.3092 40.4299C19.3092 44.6363 22.7133 48.045 26.914 48.045C28.247 48.045 29.4879 47.6869 30.5713 47.0789V47.7862H34.211V33.0665H30.5713ZM26.9158 44.7568C24.5295 44.7568 22.5947 42.8193 22.5947 40.4299C22.5947 38.0404 24.5295 36.103 26.9158 36.103C29.3021 36.103 31.2369 38.0404 31.2369 40.4299C31.2369 42.8193 29.3021 44.7568 26.9158 44.7568Z" fill="black"/>
<path d="M45.0304 32.8148C43.701 32.8148 42.46 33.1729 41.373 33.7738V33.0665H37.7338V54.6621H41.373V47.0754C42.4567 47.6834 43.6955 48.0414 45.0304 48.0414C49.2311 48.0414 52.6351 44.6328 52.6351 40.4264C52.6351 36.22 49.2294 32.8148 45.0304 32.8148ZM45.0304 44.7568C42.6438 44.7568 40.7094 42.8193 40.7094 40.4299C40.7094 38.0404 42.6438 36.103 45.0304 36.103C47.4164 36.103 49.3514 38.0404 49.3514 40.4299C49.3514 42.8193 47.4164 44.7568 45.0304 44.7568Z" fill="black"/>
<path d="M92.7504 33.0256H79.4561V36.0745H87.1331L79.1729 47.8198H92.4031V44.7656H84.7929L92.7504 33.0256Z" fill="black"/>
<path d="M73.2531 33.0665V33.7738C72.1661 33.1729 70.9272 32.8148 69.5957 32.8148C65.395 32.8148 61.991 36.2235 61.991 40.4299C61.991 44.6363 65.395 48.045 69.5957 48.045C70.9289 48.045 72.1699 47.6869 73.2531 47.0789V47.7862H76.8929V33.0665H73.2531ZM69.5957 44.7568C67.2096 44.7568 65.2746 42.8193 65.2746 40.4299C65.2746 38.0404 67.2096 36.103 69.5957 36.103C71.9822 36.103 73.9172 38.0404 73.9172 40.4299C73.9172 42.8193 71.9822 44.7568 69.5957 44.7568Z" fill="black"/>
</g>
</g>
</g>
<defs>
<clipPath id="clip0_0_312">
<rect width="124.215" height="28.7074" fill="white" transform="translate(19.3092 25.9548)"/>
</clipPath>
</defs>
</svg>
