<svg width="163" height="80" viewBox="0 0 163 80" fill="none" xmlns="http://www.w3.org/2000/svg">
<g clip-path="url(#clip0_0_330)">
<mask id="mask0_0_330" style="mask-type:luminance" maskUnits="userSpaceOnUse" x="19" y="31" width="124" height="18">
<path d="M142.524 31.4462H19.5552V48.128H142.524V31.4462Z" fill="white"/>
</mask>
<g mask="url(#mask0_0_330)">
<path d="M42.3558 35.283C38.2121 35.283 35.5245 38.2523 35.5245 41.7055C35.5418 45.2921 38.1079 48.128 42.3558 48.128C46.4481 48.128 49.1358 45.1086 49.1358 41.6888C49.1358 38.1189 46.552 35.283 42.3558 35.283ZM42.3387 45.1086C40.2058 45.1086 39.2178 43.4571 39.2178 41.6888C39.2178 39.9539 40.2058 38.3024 42.3558 38.3024C44.4887 38.3024 45.4425 39.9372 45.4425 41.6888C45.4596 43.4571 44.4887 45.1086 42.3387 45.1086ZM33.8599 44.0409L32.0393 42.7064C31.1723 43.9742 29.8026 44.825 27.93 44.825C25.017 44.825 23.3524 42.623 23.3524 39.7871C23.3524 37.0512 24.8609 34.7658 27.9993 34.7658C29.8199 34.7658 31.0683 35.5499 31.9006 36.8177L33.7385 35.4498C34.1547 35.1328 34.2587 34.549 33.9466 34.1319C32.5421 32.2636 30.3574 31.4462 27.9646 31.4462C22.2254 31.4462 19.5552 35.5833 19.5552 39.7704C19.5552 44.7416 22.6242 48.128 27.9126 48.128C30.4441 48.128 32.6635 47.2605 34.068 45.3421C34.3801 44.9251 34.276 44.3579 33.8599 44.0409ZM58.7588 35.283C56.9381 35.283 55.4816 36.0337 54.5107 37.2514C54.4759 36.9178 54.4239 36.5842 54.3548 36.2172C54.1985 35.7834 53.852 35.5666 53.2796 35.5666H51.1295V47.861H54.8057V42.0057C54.8057 39.5202 56.0363 38.3024 57.8747 38.3024C59.3308 38.3024 60.1286 39.1365 60.1286 40.838V47.8444H63.8043V40.9715C63.822 37.1847 61.9836 35.283 58.7588 35.283ZM73.1156 45.0085C72.9074 45.0752 72.6819 45.1086 72.4565 45.1086C70.9828 45.1086 70.1506 44.2745 70.1506 42.5229V38.5192H73.445C73.9998 38.5192 74.4335 38.0855 74.4335 37.5684V35.5666H70.1506V33.7983C70.1506 33.2645 69.6997 32.8474 69.1621 32.8474H66.4749V42.3894C66.4749 45.9426 68.1044 48.128 71.3469 48.128C73.2543 48.128 74.5894 47.3272 75.1961 46.8768L74.2424 45.4088C73.9826 45.0585 73.5317 44.8917 73.1156 45.0085ZM82.496 35.283C80.4671 35.283 78.9242 35.65 77.3981 36.6509C76.8953 36.9845 76.809 37.6518 77.1903 38.1022L78.2131 39.32C79.5658 38.3191 80.6925 38.1022 82.0104 38.1022C83.7272 38.1022 84.8539 38.9863 84.8539 40.9047V41.0549C83.8311 40.6879 82.6695 40.5044 81.3865 40.5044C77.6755 40.5044 76.1498 42.4228 76.1498 44.3912C76.1498 46.3096 77.4677 48.1446 80.7969 48.1446C82.9293 48.1446 84.3511 47.2605 85.2009 46.1261C85.2357 46.4598 85.2528 46.7934 85.3396 47.1604C85.4435 47.6442 85.8424 47.861 86.4144 47.861H88.3218V41.0716C88.3218 37.0346 85.7557 35.283 82.496 35.283ZM84.7328 43.2235C84.5246 44.5414 83.415 45.559 81.4208 45.559C80.3112 45.559 79.5658 45.1419 79.5658 44.2077C79.5658 43.2235 80.2941 42.7397 82.0104 42.7397C83.0337 42.7397 83.8659 42.8732 84.75 43.0734L84.7328 43.2235ZM121.041 44.9084H115.232L121.249 38.5526C121.596 38.1856 121.734 37.852 121.734 37.3682V36.5341V35.5666H111.816C111.192 35.5666 110.828 35.9002 110.828 36.5174V38.5026H117.174L111.175 44.8583C110.828 45.192 110.672 45.5256 110.672 46.0261V47.8444H122.046V45.8592C122.046 45.242 121.665 44.9084 121.041 44.9084ZM135.38 35.5666H132.571V41.4386C132.571 43.9241 131.409 45.1086 129.589 45.1086C128.185 45.1086 127.404 44.2745 127.404 42.6063V36.4007C127.404 35.9336 127.023 35.5666 126.537 35.5666H123.728V42.4728C123.728 46.1929 125.532 48.1446 128.705 48.1446C130.473 48.1446 131.877 47.394 132.866 46.2095C132.901 46.5265 132.953 46.8768 133.022 47.1938C133.161 47.6609 133.525 47.861 134.097 47.861H136.247V36.4007C136.247 35.9336 135.865 35.5666 135.38 35.5666ZM141.535 31.7131H138.848V46.8935C138.848 47.4273 139.299 47.8444 139.836 47.8444H142.524V32.6639C142.524 32.1468 142.073 31.7131 141.535 31.7131ZM102.557 31.7131H99.1068L92.5699 47.861H96.3324L97.7542 44.0076H104.586L106.043 47.861H109.909L103.701 32.4471C103.528 31.9299 103.112 31.7131 102.557 31.7131ZM98.7775 40.9715L101.17 34.7658L103.563 40.9715H98.7775Z" fill="#2687E9"/>
</g>
</g>
<defs>
<clipPath id="clip0_0_330">
<rect width="122.969" height="16.6818" fill="white" transform="translate(19.5552 31.4462)"/>
</clipPath>
</defs>
</svg>
