<svg width="163" height="80" viewBox="0 0 163 80" fill="none" xmlns="http://www.w3.org/2000/svg">
<g clip-path="url(#clip0_0_341)">
<path fill-rule="evenodd" clip-rule="evenodd" d="M54.4982 40.641H58.2363C58.1828 39.7446 57.9675 38.9691 57.5909 38.3147C57.2147 37.6603 56.726 37.1134 56.1252 36.6742C55.5245 36.2349 54.8433 35.9077 54.0812 35.6925C53.3195 35.4774 52.5258 35.3698 51.7014 35.3698C50.5719 35.3698 49.5676 35.5581 48.6892 35.9346C47.8108 36.3111 47.0664 36.8355 46.4568 37.5079C45.8472 38.1803 45.3855 38.9781 45.0719 39.9015C44.7581 40.8248 44.6013 41.8244 44.6013 42.9001C44.6013 43.94 44.7716 44.8947 45.1123 45.7643C45.4529 46.6339 45.9281 47.3824 46.5377 48.0099C47.1473 48.6375 47.8866 49.126 48.7562 49.4757C49.6261 49.8253 50.5807 50.0001 51.6205 50.0001C53.4674 50.0001 54.9823 49.516 56.1657 48.5478C57.3491 47.5796 58.0661 46.1722 58.3172 44.3255H54.6326C54.5071 45.1861 54.1979 45.8719 53.705 46.3829C53.2116 46.8938 52.5081 47.1493 51.5935 47.1493C51.002 47.1493 50.4999 47.0149 50.0874 46.7459C49.6754 46.477 49.3481 46.1319 49.1058 45.7105C48.864 45.2892 48.6892 44.8185 48.5818 44.2986C48.4739 43.7786 48.4204 43.2677 48.4204 42.7656C48.4204 42.2457 48.4739 41.7213 48.5818 41.1923C48.6892 40.6634 48.8729 40.1793 49.1328 39.7401C49.3927 39.3008 49.7289 38.9422 50.1413 38.6643C50.5538 38.3864 51.0648 38.2475 51.6744 38.2475C53.306 38.2475 54.2472 39.0453 54.4982 40.641ZM59.8005 35.7463H63.4311V38.3282H63.4851C63.6641 37.8978 63.9063 37.4989 64.2109 37.1314C64.5159 36.7638 64.8656 36.4501 65.2599 36.1901C65.6542 35.9301 66.0755 35.7284 66.5238 35.585C66.972 35.4415 67.4384 35.3698 67.9224 35.3698C68.1735 35.3698 68.4511 35.4147 68.7562 35.5043V39.0543C68.5767 39.0184 68.3618 38.9871 68.1107 38.9601C67.8597 38.9333 67.6174 38.9198 67.3845 38.9198C66.6851 38.9198 66.0936 39.0363 65.6096 39.2694C65.1255 39.5025 64.7354 39.8208 64.4397 40.2242C64.1439 40.6276 63.9333 41.0982 63.8078 41.6361C63.6822 42.174 63.6194 42.7567 63.6194 43.3842V49.6505H59.8005V35.7463ZM78.6361 41.2058C78.4566 40.2376 78.1385 39.5025 77.6815 39.0005C77.2239 38.4985 76.5292 38.2475 75.5969 38.2475C74.9873 38.2475 74.481 38.3506 74.0774 38.5568C73.6742 38.7629 73.3515 39.0184 73.1093 39.3232C72.8674 39.628 72.6968 39.9507 72.5982 40.2914C72.4997 40.632 72.4415 40.9368 72.4234 41.2058H78.6361ZM72.7575 43.6262C72.8114 44.8634 73.1253 45.7598 73.6991 46.3156C74.2724 46.8715 75.0973 47.1493 76.1733 47.1493C76.9442 47.1493 77.6073 46.9566 78.1634 46.5711C78.7191 46.1856 79.0599 45.7778 79.1854 45.3475H82.5469C82.0093 47.0149 81.1844 48.2072 80.0727 48.9243C78.9613 49.6415 77.6166 50.0001 76.0384 50.0001C74.9448 50.0001 73.959 49.8253 73.0802 49.4757C72.2018 49.126 71.4578 48.6285 70.8482 47.9831C70.2386 47.3376 69.7681 46.5667 69.4361 45.6702C69.1046 44.7737 68.9386 43.7876 68.9386 42.7118C68.9386 41.6719 69.1092 40.7038 69.4496 39.8073C69.7904 38.9109 70.2745 38.1354 70.9017 37.481C71.5295 36.8266 72.2781 36.3111 73.1476 35.9346C74.0171 35.5581 74.981 35.3698 76.0384 35.3698C77.2218 35.3698 78.2527 35.5984 79.1315 36.0556C80.0099 36.5128 80.7315 37.1269 81.2965 37.8979C81.861 38.6688 82.2692 39.5473 82.5199 40.5335C82.771 41.5196 82.8607 42.5505 82.7891 43.6262H72.7575ZM94.9182 42.6581C94.9182 42.0843 94.8643 41.533 94.7569 41.0041C94.649 40.4752 94.4654 40.009 94.2054 39.6056C93.9455 39.2022 93.6093 38.875 93.1969 38.624C92.7845 38.373 92.2646 38.2475 91.6373 38.2475C91.0096 38.2475 90.4804 38.373 90.0503 38.624C89.6202 38.875 89.2747 39.2067 89.0148 39.6191C88.7549 40.0314 88.5666 40.5021 88.4503 41.031C88.3336 41.5599 88.2755 42.1112 88.2755 42.685C88.2755 43.2229 88.3382 43.7607 88.4638 44.2986C88.5893 44.8364 88.7907 45.3161 89.0687 45.7374C89.3468 46.1587 89.6964 46.4994 90.1177 46.7594C90.539 47.0194 91.0454 47.1493 91.6373 47.1493C92.2646 47.1493 92.7891 47.0238 93.2104 46.7728C93.6316 46.5218 93.9678 46.1856 94.2189 45.7643C94.47 45.343 94.649 44.8634 94.7569 44.3255C94.8643 43.7876 94.9182 43.2318 94.9182 42.6581ZM94.9717 47.8755H94.9182C94.47 48.6285 93.8827 49.1709 93.1564 49.5025C92.4306 49.8343 91.6103 50.0001 90.6957 50.0001C89.656 50.0001 88.7414 49.7984 87.9528 49.395C87.1637 48.9916 86.5137 48.4447 86.0026 47.7545C85.492 47.0641 85.1066 46.2708 84.8462 45.3743C84.5863 44.4779 84.4565 43.5456 84.4565 42.5774C84.4565 41.6451 84.5863 40.7441 84.8462 39.8745C85.1066 39.005 85.492 38.2385 86.0026 37.5751C86.5137 36.9117 87.1548 36.3783 87.9258 35.9749C88.6967 35.5715 89.5932 35.3698 90.6153 35.3698C91.4397 35.3698 92.2241 35.5446 92.9681 35.8943C93.7125 36.2439 94.2994 36.7594 94.7299 37.4407H94.7839V30.4482H98.6028V49.6505H94.9717V47.8755ZM104.237 33.5948V30.4482H100.419V33.5948H104.237ZM100.419 35.7463V49.6505H104.237V35.7463H100.419ZM111.589 35.7463V31.5778H107.77V35.7463H105.457V38.3013H107.77V46.5039C107.77 47.2031 107.887 47.7679 108.12 48.1982C108.353 48.6285 108.671 48.9602 109.075 49.1933C109.478 49.4263 109.944 49.5832 110.473 49.6639C111.002 49.7446 111.562 49.7849 112.154 49.7849C112.53 49.7849 112.916 49.7759 113.311 49.758C113.705 49.7401 114.063 49.7042 114.386 49.6505V46.6922C114.207 46.728 114.019 46.7549 113.822 46.7728C113.624 46.7907 113.418 46.7997 113.203 46.7997C112.557 46.7997 112.127 46.6922 111.912 46.477C111.697 46.2618 111.589 45.8316 111.589 45.1861V38.3013H114.386V35.7463H111.589ZM124.572 41.2058C124.392 40.2376 124.074 39.5025 123.617 39.0005C123.16 38.4985 122.465 38.2475 121.533 38.2475C120.923 38.2475 120.417 38.3506 120.013 38.5568C119.61 38.7629 119.287 39.0184 119.045 39.3232C118.803 39.628 118.633 39.9507 118.534 40.2914C118.436 40.632 118.377 40.9368 118.359 41.2058H124.572ZM118.359 43.6262C118.413 44.8634 118.727 45.7598 119.301 46.3156C119.874 46.8715 120.699 47.1493 121.775 47.1493C122.546 47.1493 123.209 46.9566 123.765 46.5711C124.321 46.1856 124.662 45.7778 124.787 45.3475H128.149C127.611 47.0149 126.786 48.2072 125.674 48.9243C124.563 49.6415 123.218 50.0001 121.64 50.0001C120.547 50.0001 119.561 49.8253 118.682 49.4757C117.804 49.126 117.06 48.6285 116.45 47.9831C115.84 47.3376 115.37 46.5667 115.038 45.6702C114.706 44.7737 114.54 43.7876 114.54 42.7118C114.54 41.6719 114.711 40.7038 115.051 39.8073C115.392 38.9109 115.876 38.1354 116.504 37.481C117.131 36.8266 117.88 36.3111 118.749 35.9346C119.619 35.5581 120.582 35.3698 121.64 35.3698C122.824 35.3698 123.854 35.5984 124.733 36.0556C125.612 36.5128 126.333 37.1269 126.898 37.8979C127.463 38.6688 127.871 39.5473 128.122 40.5335C128.373 41.5196 128.462 42.5505 128.391 43.6262H118.359ZM130.154 40.0224C130.208 39.126 130.432 38.3819 130.827 37.7903C131.221 37.1986 131.723 36.7235 132.333 36.3649C132.942 36.0063 133.628 35.7508 134.39 35.5984C135.152 35.446 135.919 35.3698 136.69 35.3698C137.389 35.3698 138.097 35.4191 138.814 35.5178C139.531 35.6164 140.186 35.8091 140.777 36.096C141.369 36.3829 141.853 36.7818 142.23 37.2927C142.606 37.8037 142.795 38.4806 142.795 39.3232V46.5577C142.795 47.1852 142.83 47.7858 142.902 48.3596C142.974 48.9333 143.099 49.3636 143.279 49.6505H139.406C139.334 49.4353 139.276 49.2157 139.231 48.9916C139.186 48.7674 139.155 48.5389 139.137 48.3058C138.527 48.9333 137.81 49.3726 136.985 49.6236C136.161 49.8746 135.318 50.0001 134.457 50.0001C133.794 50.0001 133.175 49.9194 132.602 49.758C132.028 49.5967 131.526 49.3457 131.095 49.005C130.665 48.6644 130.329 48.2341 130.087 47.7141C129.845 47.1942 129.724 46.5756 129.724 45.8584C129.724 45.0695 129.863 44.4196 130.141 43.9086C130.419 43.3976 130.777 42.9898 131.217 42.685C131.656 42.3802 132.158 42.1516 132.723 41.9991C133.287 41.8468 133.857 41.7257 134.43 41.6361C135.004 41.5464 135.569 41.4747 136.125 41.4209C136.68 41.3671 137.174 41.2865 137.604 41.1789C138.034 41.0713 138.375 40.9144 138.626 40.7083C138.877 40.5021 138.994 40.2017 138.976 39.8073C138.976 39.3949 138.908 39.0677 138.774 38.8257C138.639 38.5836 138.46 38.3954 138.236 38.2609C138.012 38.1265 137.752 38.0368 137.456 37.992C137.16 37.9472 136.842 37.9248 136.501 37.9248C135.748 37.9248 135.157 38.0861 134.727 38.4088C134.296 38.7316 134.045 39.2694 133.973 40.0224H130.154ZM138.976 42.8463C138.814 42.9898 138.612 43.1018 138.371 43.1825C138.128 43.2632 137.868 43.3304 137.59 43.3842C137.313 43.438 137.021 43.4828 136.717 43.5187C136.412 43.5545 136.107 43.5994 135.802 43.6531C135.515 43.7069 135.233 43.7786 134.955 43.8683C134.677 43.9579 134.435 44.0789 134.229 44.2314C134.023 44.3837 133.857 44.5765 133.731 44.8096C133.606 45.0427 133.543 45.3385 133.543 45.6971C133.543 46.0377 133.606 46.3246 133.731 46.5577C133.857 46.7907 134.027 46.9745 134.242 47.109C134.457 47.2434 134.708 47.3376 134.995 47.3914C135.282 47.4452 135.578 47.4721 135.883 47.4721C136.636 47.4721 137.218 47.3466 137.631 47.0955C138.043 46.8445 138.348 46.5442 138.545 46.1946C138.743 45.845 138.864 45.4909 138.908 45.1323C138.953 44.7737 138.976 44.4869 138.976 44.2717V42.8463Z" fill="#10465B"/>
<path d="M25.2046 41.9665C28.4335 41.9665 31.0511 39.349 31.0511 36.12C31.0511 32.8911 28.4335 30.2736 25.2046 30.2736C21.9757 30.2736 19.3581 32.8911 19.3581 36.12C19.3581 39.349 21.9757 41.9665 25.2046 41.9665Z" fill="#A7CB19"/>
<path fill-rule="evenodd" clip-rule="evenodd" d="M31.8249 38.0979C32.3076 36.483 32.2965 34.4998 31.0337 32.4207C32.1058 31.1101 33.7358 30.2736 35.5612 30.2736C38.7901 30.2736 41.4076 32.8911 41.4076 36.12C41.4076 36.6543 41.336 37.1718 41.2018 37.6635C41.1603 37.909 41.055 38.1952 40.8967 38.5139C40.6922 38.969 40.4312 39.3932 40.1226 39.7775C37.3674 43.7039 30.3852 50.0084 30.3852 50.0084C30.3852 50.0084 24.9859 45.1744 22.9236 42.6017C24.3372 43.7377 30.1755 43.3597 31.8249 38.0979Z" fill="#79C9D6"/>
</g>
<defs>
<clipPath id="clip0_0_341">
<rect width="124.278" height="20.2216" fill="white" transform="translate(19 30)"/>
</clipPath>
</defs>
</svg>
