<svg width="163" height="80" viewBox="0 0 163 80" fill="none" xmlns="http://www.w3.org/2000/svg">
<g clip-path="url(#clip0_0_352)">
<path d="M30.1277 35.1827H34.8358L34.6815 39.7682H34.733C35.4276 37.1148 36.2251 34.9508 39.9813 34.9508C42.9401 34.9508 44.8438 36.4708 45.1783 38.9695H45.2041C45.8215 36.4708 47.5196 34.9508 50.4782 34.9508C53.8228 34.9508 55.7266 37.0632 55.7266 40.6698V50.588H50.9928V41.7776C50.9928 39.9743 50.0666 38.8666 48.4457 38.8666C46.8248 38.8666 45.2812 40.3092 45.2812 43.143V50.588H40.5474V41.7776C40.5474 39.9743 39.6212 38.8666 38.0003 38.8666C36.3795 38.8666 34.8358 40.3349 34.8358 43.2202V50.588H30.1277V35.1827Z" fill="#6115DD"/>
<path d="M57.6576 42.9111C57.6576 37.9134 60.9506 34.9508 66.019 34.9508C71.0873 34.9508 74.3804 37.9134 74.3804 42.9111C74.3804 47.9088 71.0873 50.8456 66.019 50.8456C60.9506 50.8456 57.6576 47.9088 57.6576 42.9111ZM69.6724 42.9111C69.6724 40.1804 68.3345 38.5574 66.019 38.5574C63.7035 38.5574 62.3914 40.1804 62.3914 42.9111C62.3914 45.6418 63.7293 47.2132 66.019 47.2132C68.3088 47.2132 69.6724 45.6418 69.6724 42.9111Z" fill="#6115DD"/>
<path d="M81.145 47.3937H81.1193C81.145 48.2952 81.1964 49.8409 81.2737 50.588H76.5397V29H81.2737V35.4404C81.2737 36.1617 81.1964 38.3257 81.1707 39.0727H81.2221C81.8139 37.0376 83.7949 34.9508 86.522 34.9508C90.8957 34.9508 93.4942 37.7846 93.4942 42.5762C93.4942 47.78 90.87 50.8456 86.4963 50.8456C83.6919 50.8456 81.7109 49.3515 81.145 47.3937ZM88.7603 42.7307C88.7603 40.1289 87.4482 38.5575 85.2356 38.5575C83.0231 38.5575 81.2737 40.1547 81.2737 42.8081V43.5037C81.2737 45.8479 82.7657 47.2133 85.2871 47.2133C87.8084 47.2133 88.7603 45.5645 88.7603 42.7307Z" fill="#6115DD"/>
<path d="M95.7074 35.1826H100.416V50.5879H95.7074V35.1826Z" fill="#6115DD"/>
<path d="M102.987 29H107.695V50.588H102.987V29Z" fill="#6115DD"/>
<path d="M110.192 29H114.926V50.588H110.192V29Z" fill="#6115DD"/>
<path d="M117.061 45.4099H121.307C121.307 46.8526 122.027 47.78 124.727 47.78C127.429 47.78 128.047 47.0586 128.047 45.9508C128.047 45.3842 127.764 44.9462 126.966 44.7659C126.169 44.5856 124.908 44.4567 123.391 44.3279C121.178 44.1476 119.454 43.787 118.528 43.143C118.064 42.7911 117.69 42.3349 117.435 41.8112C117.181 41.2876 117.052 40.7113 117.061 40.1289C117.061 36.7799 120.484 34.9508 124.754 34.9508C129.797 34.9508 132.086 36.8829 132.086 40.4637H127.918C127.893 38.8408 127.147 37.9907 124.805 37.9907C122.464 37.9907 121.77 38.712 121.77 39.7682C121.77 40.8244 122.027 40.9275 122.902 41.1336C123.777 41.3396 125.036 41.4684 126.684 41.623C128.33 41.7776 129.925 41.9837 131.083 42.6534C131.608 42.966 132.042 43.4115 132.34 43.9453C132.637 44.4789 132.79 45.0818 132.781 45.6933C132.781 48.9392 130.002 50.8456 124.754 50.8456C119.506 50.8456 117.061 48.527 117.061 45.4099Z" fill="#6115DD"/>
</g>
<defs>
<clipPath id="clip0_0_352">
<rect width="103.651" height="22.4903" fill="white" transform="translate(29.3489 29)"/>
</clipPath>
</defs>
</svg>
