<svg width="85" height="23" viewBox="0 0 85 23" fill="none" xmlns="http://www.w3.org/2000/svg">
<path d="M68.0694 5.7334C63.2246 5.7334 59.5482 9.26144 59.5482 14.0163C59.5482 18.7713 63.0762 22.2094 68.0694 22.2094C73.0626 22.2094 76.6805 18.6814 76.6805 13.9557C76.6805 9.23009 73.1232 5.7334 68.0694 5.7334ZM68.0945 17.5256C66.0232 17.5256 64.5602 16.0291 64.5602 13.9892C64.5602 11.9493 66.0859 10.4152 68.0945 10.4152C70.1846 10.4152 71.6685 11.9137 71.6685 13.9683C71.6685 16.0228 70.1553 17.5256 68.0966 17.5256H68.0945Z" fill="#00101E"/>
<path d="M24.0651 15.2411C24.1821 16.6059 25.4884 17.768 27.288 17.768C27.9099 17.7681 28.5231 17.6208 29.0771 17.3381C29.6312 17.0555 30.1103 16.6455 30.4753 16.1419L33.6689 18.6103C33.2342 19.509 31.1441 21.9774 27.1897 21.9774C22.1736 21.9774 19.0886 18.5225 19.0886 14.0226C19.0886 9.52265 22.115 5.97998 26.592 5.97998C31.4409 5.97998 34.0828 9.08792 34.0828 14.2838C34.0828 14.5744 34.0828 14.8941 34.0535 15.2411H24.0651ZM24.2114 12.1645H29.146C29.0875 10.946 28.1888 9.89886 26.6798 9.89886C25.0829 9.89886 24.3263 11.1007 24.2051 12.1645H24.2114Z" fill="#00101E"/>
<path d="M41.2142 0.200928H36.2209V21.8206H41.2142V0.200928Z" fill="#0663F9"/>
<path d="M59.4771 6.12207H54.2854L49.8315 21.8206H54.1851L59.4771 6.12207Z" fill="#F90E06"/>
<path d="M49.8315 21.8206H48.3831L43.0012 6.12207H48.3538L51.3238 16.5599" fill="#00101E"/>
<path d="M8.69051 5.36966C7.40545 5.36191 6.1333 5.62617 4.95765 6.14508V0.219727H0V21.8373H4.95765V21.1079C6.13888 21.6049 7.40902 21.856 8.69051 21.8457C13.6544 21.8457 17.3016 18.3177 17.3016 13.592C17.3016 8.86635 13.7422 5.36966 8.69051 5.36966ZM8.71559 17.1618C6.64851 17.1618 5.18546 15.6654 5.18546 13.6254C5.18546 11.5855 6.70494 10.0556 8.71559 10.0556C10.8057 10.0556 12.2896 11.5542 12.2896 13.6087C12.2896 15.6633 10.7764 17.1618 8.71559 17.1618Z" fill="#00101E"/>
<path d="M81.425 15.0989C83.5151 15.0989 84.999 16.5954 84.999 18.652C85.0103 19.1235 84.9254 19.5923 84.7495 20.0298C84.5736 20.4674 84.3104 20.8645 83.976 21.197C83.6415 21.5295 83.2429 21.7904 82.8043 21.9637C82.3657 22.137 81.8964 22.2192 81.425 22.2051C79.3537 22.2051 77.8886 20.7086 77.8886 18.6687C77.8886 16.6288 79.4144 15.0989 81.425 15.0989ZM81.425 15.0989C83.5151 15.0989 84.999 16.5954 84.999 18.652C85.0103 19.1235 84.9254 19.5923 84.7495 20.0298C84.5736 20.4674 84.3104 20.8645 83.976 21.197C83.6415 21.5295 83.2429 21.7904 82.8043 21.9637C82.3657 22.137 81.8964 22.2192 81.425 22.2051C79.3537 22.2051 77.8886 20.7086 77.8886 18.6687C77.8886 16.6288 79.4144 15.0989 81.425 15.0989Z" fill="#F9C806"/>
</svg>
